<svg xmlns="http://www.w3.org/2000/svg" viewBox="0 0 1360 1477" width="1360" height="1477" font-family="Hiragino Sans, Yu Gothic, Meiryo, Noto Sans CJK JP, Noto Sans CJK TC, sans-serif" font-size="11" xmlns:c2pa="http://c2pa.org/manifest"><metadata><c2pa:manifest>AAAWgmp1bWIAAAAeanVtZGMycGEAEQAQgAAAqgA4m3EDYzJwYQAAABZcanVtYgAAAEdqdW1kYzJtYQARABCAAACqADibcQN1cm46YzJwYTpmYzBjNWUzOC1lNmMxLTQ5MTItODRmZi00N2M5MDc0ZTkxMTYAAAADl2p1bWIAAAApanVtZGMyYXMAEQAQgAAAqgA4m3EDYzJwYS5hc3NlcnRpb25zAAAAALxqdW1iAAAARGp1bWRjYm9yABEAEIAAAKoAOJtxE2MycGEuaW5ncmVkaWVudC52MwAAAAAYYzJzaJx0PPudoDdByv4r0RtUmY4AAABwY2JvcqNpZGM6Zm9ybWF0bWltYWdlL3N2Zyt4bWxqaW5zdGFuY2VJRHgseG1wOmlpZDo5NTM2NWMyOS1jNzJkLTRlM2EtYTBlOC04NmRjOTE3Njc0ZWVscmVsYXRpb25zaGlwaHBhcmVudE9mAAAB4mp1bWIAAABBanVtZGNib3IAEQAQgAAAqgA4m3ETYzJwYS5hY3Rpb25zLnYyAAAAABhjMnNoO5HEQ4H6X6cPcdYYZZovmwAAAZljYm9yomdhY3Rpb25zgqJmYWN0aW9ua2MycGEub3BlbmVkanBhcmFtZXRlcnOha2luZ3JlZGllbnRzgaJjdXJseC1zZWxmI2p1bWJmPWMycGEuYXNzZXJ0aW9ucy9jMnBhLmluZ3JlZGllbnQudjNkaGFzaFggQLkm6y+FzVxR4xZI8pOjNdGFl4uTJQHFVcFpu0JExLGkZmFjdGlvbngdY29tLmFudGhyb3BpYy5jbGF1ZGUucHJvdmlkZWRqcGFyYW1ldGVyc6F4H2NvbS5hbnRocm9waWMub3JpZ2luLWNvbmZpZGVuY2VndW5rbm93bmtkZXNjcmlwdGlvbnhmQ2xhdWRlIHByb3ZpZGVkIHRoaXMgZmlsZSBhdCB0aGUgcmVxdWVzdCBvZiBhIHVzZXIgYW5kIG1heSBoYXZlIGNyZWF0ZWQgb3IgbW9kaWZpZWQgdGhlIGZpbGUgY29udGVudHMubXNvZnR3YXJlQWdlbnShZG5hbWVmQ2xhdWRlcmFsbEFjdGlvbnNJbmNsdWRlZPUAAADIanVtYgAAAEBqdW1kY2JvcgARABCAAACqADibcRNjMnBhLmhhc2guZGF0YQAAAAAYYzJzaPFtJznpfL8UZwCCu9uw9R8AAACAY2JvcqVjYWxnZnNoYTI1NmNwYWRMAAAAAAAAAAAAAAAAZGhhc2hYIJJu4mnJVO1MHRLFTAQVb1+gwgrmLcy3cEuxcqdSK/zoZG5hbWVuanVtYmYgbWFuaWZlc3RqZXhjbHVzaW9uc4GiZXN0YXJ0GQEIZmxlbmd0aBkeBAAAAj5qdW1iAAAAJ2p1bWRjMmNsABEAEIAAAKoAOJtxA2MycGEuY2xhaW0udjIAAAACD2Nib3KlY2FsZ2ZzaGEyNTZpc2lnbmF0dXJleE1zZWxmI2p1bWJmPS9jMnBhL3VybjpjMnBhOmZjMGM1ZTM4LWU2YzEtNDkxMi04NGZmLTQ3YzkwNzRlOTExNi9jMnBhLnNpZ25hdHVyZWppbnN0YW5jZUlEeCx4bXA6aWlkOjlmNjU0YTg1LTRlMjAtNDdlOC04ZjdlLWEyMTJmYjNlMTE2YnJjcmVhdGVkX2Fzc2VydGlvbnODomN1cmx4LXNlbGYjanVtYmY9YzJwYS5hc3NlcnRpb25zL2MycGEuaW5ncmVkaWVudC52M2RoYXNoWCBAuSbrL4XNXFHjFkjyk6M10YWXi5MlAcVVwWm7QkTEsaJjdXJseCpzZWxmI2p1bWJmPWMycGEuYXNzZXJ0aW9ucy9jMnBhLmFjdGlvbnMudjJkaGFzaFggMIenucQHhg+453QOEnLtpxwhChaXhP/QwoVZ6+JHp0yiY3VybHgpc2VsZiNqdW1iZj1jMnBhLmFzc2VydGlvbnMvYzJwYS5oYXNoLmRhdGFkaGFzaFgglkX+mAPHLk4fLkkAP4xHjCfERjvlG7PdsFrxbbr17w10Y2xhaW1fZ2VuZXJhdG9yX2luZm+jZG5hbWVvQW50aHJvcGljIEZpbGVzZ3ZlcnNpb25lMS4wLjBrc3BlY1ZlcnNpb25lMi40LjAAABA4anVtYgAAAChqdW1kYzJjcwARABCAAACqADibcQNjMnBhLnNpZ25hdHVyZQAAABAIY2JvctKEWQISogEmGCFZAgowggIGMIIBjaADAgECAhRA5aAK7sI50L64g/oGQgU9Z1UTADAKBggqhkjOPQQDAzBJMRcwFQYDVQQKEw5BbnRocm9waWMsIFBCQzEuMCwGA1UEAxMlQW50aHJvcGljIENvbnRlbnQgQ3JlZGVudGlhbHMgUm9vdCBDQTAeFw0yNjA4MDcxODQzNTZaFw0yODA4MDYxOTQzNTZaMEQxFzAVBgNVBAoTDkFudGhyb3BpYywgUEJDMSkwJwYDVQQDEyBBbnRocm9waWMgQ2xhdWRlIENvbnRlbnQgU2lnbmluZzBZMBMGByqGSM49AgEGCCqGSM49AwEHA0IABJh6CmvLUBgFFNU0vUKlOVtE6djd17L5SuwX0LemFisBM3dkd/3cyjxFA3Qo5S46fX0/ihY0VZ7mfb9KF703t5OjWDBWMA4GA1UdDwEB/wQEAwIHgDAVBgNVHSUEDjAMBgorBgEEAYPoXgIBMAwGA1UdEwEB/wQCMAAwHwYDVR0jBBgwFoAUzlHiBIFOZFsj+OPEz5o+nMHXXMIwCgYIKoZIzj0EAwMDZwAwZAIwMXMdFJ4BetLLVY7ORuE9noqbbAZOZn/aArXyTwFAZfKrPzxF2vPoJNf1+UCdg1XGAjBwX1zd9WGqYkqmL5SFqw1QySjr1zJfpJM9+1rdDwSPLMOPOjKuiXjoU/pUUeG9RwmhY3BhZFkNngAAAAAAAAAAAAAAAAAAAAAAAAAAAAAAAAAAAAAAAAAAAAAAAAAAAAAAAAAAAAAAAAAAAAAAAAAAAAAAAAAAAAAAAAAAAAAAAAAAAAAAAAAAAAAAAAAAAAAAAAAAAAAAAAAAAAAAAAAAAAAAAAAAAAAAAAAAAAAAAAAAAAAAAAAAAAAAAAAAAAAAAAAAAAAAAAAAAAAAAAAAAAAAAAAAAAAAAAAAAAAAAAAAAAAAAAAAAAAAAAAAAAAAAAAAAAAAAAAAAAAAAAAAAAAAAAAAAAAAAAAAAAAAAAAAAAAAAAAAAAAAAAAAAAAAAAAAAAAAAAAAAAAAAAAAAAAAAAAAAAAAAAAAAAAAAAAAAAAAAAAAAAAAAAAAAAAAAAAAAAAAAAAAAAAAAAAAAAAAAAAAAAAAAAAAAAAAAAAAAAAAAAAAAAAAAAAAAAAAAAAAAAAAAAAAAAAAAAAAAAAAAAAAAAAAAAAAAAAAAAAAAAAAAAAAAAAAAAAAAAAAAAAAAAAAAAAAAAAAAAAAAAAAAAAAAAAAAAAAAAAAAAAAAAAAAAAAAAAAAAAAAAAAAAAAAAAAAAAAAAAAAAAAAAAAAAAAAAAAAAAAAAAAAAAAAAAAAAAAAAAAAAAAAAAAAAAAAAAAAAAAAAAAAAAAAAAAAAAAAAAAAAAAAAAAAAAAAAAAAAAAAAAAAAAAAAAAAAAAAAAAAAAAAAAAAAAAAAAAAAAAAAAAAAAAAAAAAAAAAAAAAAAAAAAAAAAAAAAAAAAAAAAAAAAAAAAAAAAAAAAAAAAAAAAAAAAAAAAAAAAAAAAAAAAAAAAAAAAAAAAAAAAAAAAAAAAAAAAAAAAAAAAAAAAAAAAAAAAAAAAAAAAAAAAAAAAAAAAAAAAAAAAAAAAAAAAAAAAAAAAAAAAAAAAAAAAAAAAAAAAAAAAAAAAAAAAAAAAAAAAAAAAAAAAAAAAAAAAAAAAAAAAAAAAAAAAAAAAAAAAAAAAAAAAAAAAAAAAAAAAAAAAAAAAAAAAAAAAAAAAAAAAAAAAAAAAAAAAAAAAAAAAAAAAAAAAAAAAAAAAAAAAAAAAAAAAAAAAAAAAAAAAAAAAAAAAAAAAAAAAAAAAAAAAAAAAAAAAAAAAAAAAAAAAAAAAAAAAAAAAAAAAAAAAAAAAAAAAAAAAAAAAAAAAAAAAAAAAAAAAAAAAAAAAAAAAAAAAAAAAAAAAAAAAAAAAAAAAAAAAAAAAAAAAAAAAAAAAAAAAAAAAAAAAAAAAAAAAAAAAAAAAAAAAAAAAAAAAAAAAAAAAAAAAAAAAAAAAAAAAAAAAAAAAAAAAAAAAAAAAAAAAAAAAAAAAAAAAAAAAAAAAAAAAAAAAAAAAAAAAAAAAAAAAAAAAAAAAAAAAAAAAAAAAAAAAAAAAAAAAAAAAAAAAAAAAAAAAAAAAAAAAAAAAAAAAAAAAAAAAAAAAAAAAAAAAAAAAAAAAAAAAAAAAAAAAAAAAAAAAAAAAAAAAAAAAAAAAAAAAAAAAAAAAAAAAAAAAAAAAAAAAAAAAAAAAAAAAAAAAAAAAAAAAAAAAAAAAAAAAAAAAAAAAAAAAAAAAAAAAAAAAAAAAAAAAAAAAAAAAAAAAAAAAAAAAAAAAAAAAAAAAAAAAAAAAAAAAAAAAAAAAAAAAAAAAAAAAAAAAAAAAAAAAAAAAAAAAAAAAAAAAAAAAAAAAAAAAAAAAAAAAAAAAAAAAAAAAAAAAAAAAAAAAAAAAAAAAAAAAAAAAAAAAAAAAAAAAAAAAAAAAAAAAAAAAAAAAAAAAAAAAAAAAAAAAAAAAAAAAAAAAAAAAAAAAAAAAAAAAAAAAAAAAAAAAAAAAAAAAAAAAAAAAAAAAAAAAAAAAAAAAAAAAAAAAAAAAAAAAAAAAAAAAAAAAAAAAAAAAAAAAAAAAAAAAAAAAAAAAAAAAAAAAAAAAAAAAAAAAAAAAAAAAAAAAAAAAAAAAAAAAAAAAAAAAAAAAAAAAAAAAAAAAAAAAAAAAAAAAAAAAAAAAAAAAAAAAAAAAAAAAAAAAAAAAAAAAAAAAAAAAAAAAAAAAAAAAAAAAAAAAAAAAAAAAAAAAAAAAAAAAAAAAAAAAAAAAAAAAAAAAAAAAAAAAAAAAAAAAAAAAAAAAAAAAAAAAAAAAAAAAAAAAAAAAAAAAAAAAAAAAAAAAAAAAAAAAAAAAAAAAAAAAAAAAAAAAAAAAAAAAAAAAAAAAAAAAAAAAAAAAAAAAAAAAAAAAAAAAAAAAAAAAAAAAAAAAAAAAAAAAAAAAAAAAAAAAAAAAAAAAAAAAAAAAAAAAAAAAAAAAAAAAAAAAAAAAAAAAAAAAAAAAAAAAAAAAAAAAAAAAAAAAAAAAAAAAAAAAAAAAAAAAAAAAAAAAAAAAAAAAAAAAAAAAAAAAAAAAAAAAAAAAAAAAAAAAAAAAAAAAAAAAAAAAAAAAAAAAAAAAAAAAAAAAAAAAAAAAAAAAAAAAAAAAAAAAAAAAAAAAAAAAAAAAAAAAAAAAAAAAAAAAAAAAAAAAAAAAAAAAAAAAAAAAAAAAAAAAAAAAAAAAAAAAAAAAAAAAAAAAAAAAAAAAAAAAAAAAAAAAAAAAAAAAAAAAAAAAAAAAAAAAAAAAAAAAAAAAAAAAAAAAAAAAAAAAAAAAAAAAAAAAAAAAAAAAAAAAAAAAAAAAAAAAAAAAAAAAAAAAAAAAAAAAAAAAAAAAAAAAAAAAAAAAAAAAAAAAAAAAAAAAAAAAAAAAAAAAAAAAAAAAAAAAAAAAAAAAAAAAAAAAAAAAAAAAAAAAAAAAAAAAAAAAAAAAAAAAAAAAAAAAAAAAAAAAAAAAAAAAAAAAAAAAAAAAAAAAAAAAAAAAAAAAAAAAAAAAAAAAAAAAAAAAAAAAAAAAAAAAAAAAAAAAAAAAAAAAAAAAAAAAAAAAAAAAAAAAAAAAAAAAAAAAAAAAAAAAAAAAAAAAAAAAAAAAAAAAAAAAAAAAAAAAAAAAAAAAAAAAAAAAAAAAAAAAAAAAAAAAAAAAAAAAAAAAAAAAAAAAAAAAAAAAAAAAAAAAAAAAAAAAAAAAAAAAAAAAAAAAAAAAAAAAAAAAAAAAAAAAAAAAAAAAAAAAAAAAAAAAAAAAAAAAAAAAAAAAAAAAAAAAAAAAAAAAAAAAAAAAAAAAAAAAAAAAAAAAAAAAAAAAAAAAAAAAAAAAAAAAAAAAAAAAAAAAAAAAAAAAAAAAAAAAAAAAAAAAAAAAAAAAAAAAAAAAAAAAAAAAAAAAAAAAAAAAAAAAAAAAAAAAAAAAAAAAAAAAAAAAAAAAAAAAAAAAAAAAAAAAAAAAAAAAAAAAAAAAAAAAAAAAAAAAAAAAAAAAAAAAAAAAAAAAAAAAAAAAAAAAAAAAAAAAAAAAAAAAAAAAAAAAAAAAAAAAAAAAAAAAAAAAAAAAAAAAAAAAAAAAAAAAAAAAAAAAAAAAAAAAAAAAAAAAAAAAAAAAAAAAAAAAAAAAAAAAAAAAAAAAAAAAAAAAAAAAAAAAAAAAAAAAAAAAAAAAAAAAAAAAAAAAAAAAAAAAAAAAAAAAAAAAAAAAAAAAAAAAAAAAAAAAAAAAAAAAAAAAAAAAAAAAAAAAAAAAAAAAAAAAAAAAAAAAAAAAAAAAAAAAAAAAAAAAAAAAAAAAAAAAAAAAAAAAAAAAAAAAAAAAAAAAAAAAAAAAAAAAAAAAAAAAAAAAAAAAAAAAAAAAAAAAAAAAAAAAAAAAAAAAAAAAAAAAAAAAAAAAAAAAAAAAAAAAAAAAAAAAAAAAAAAAAAAAAAAAAAAAAAAAAAAAAAAAAAAAAAAAAAAAAAAAAAAAAAAAAAAAAAAAAAAAAAAAAAAAAAAAAAAAAAAAAAAAAAAAAAAAAAAAAAAAAAAAAAAAAAAAAAAAAAAAAAAAAAAAAAAAAAAAAAAAAAAAAAAAAAAAAAAAAAAAAAAAAAAAAAAAAAAAAAAAAAAAAAAAAAAAAAAAAAAAAAAAAAAAAAAAAAAAAAAAAAAAAAAAAAAAAAAAAAAAAAAAAAAAAAAAAAAAAAAAAAAAAAAAAAAAAAAAAAAAAAAAAAAAAAAAAAAAAAAAAAAAAAAAAAAAAAAAAAAAAAAAAAAAAAAAAAAAAAAAAAAAAAAAAAAAAAAAAAAAAAAAAAAAAAAAAAAAAAAAAAAAAAAAAAAAAAAAAAAAAAAAAAAAAAAAAAAAAAAAAAAAAAAAAAAAAAAAAAAAAAAAAAAAAAAAAAAAAAAAAAAAAAAAAAAAAAAAAAAAAAAAAAAAAAAAAAAAAAAAAAAAAAAAAAAAAAAAAAAAAAAAAAAAAAAAAAAAAAAAAAAAAAAAAAAAAAAAAAAAAAAAAAAAAAAAAAAAAAAAAAAAAAAAAAAAAAAAAAAAAAAAAAAAAAAAAAAAAAAAAAAAAAAAAAAAAAAAAAAAAAAAAAAAAAAAAAAAAAAAAAAAAAAAAAAAAAAAAAAAAAAAAAAAAAAAAAAAAAAAAAAAAAAAAAAAAAAAAAAAAAAAAAAAAAAAAAAAAAAAAAAAAAAAAAAAAAAAAAAAAAAAAAAAAAAAAAAAAAAAAAAAAAAAAAAAAAAAAAAAAAAAAAAAAAAAAAAAAAAAAAAAAAAAAAAAAAAAAAAAAAAAAAAAAAAAAAAAAAAAAAAAAAAAAAAAAAAAAAPZYQDMkGEVggYhB4w4w0lRJCx1dfQIU8zap5+sUIcRMT0W0A63ocy/nBNtF6hiWeuJBGd52N72jOuPjzDxIKl1l60Q=</c2pa:manifest></metadata>
<defs><marker id="ar" markerWidth="8" markerHeight="8" refX="7" refY="4" orient="auto"><path d="M0,0 L8,4 L0,8 z" fill="#000"/></marker></defs>
<rect x="0" y="0" width="1360" height="1477" fill="#ffffff"/>
<text x="30" y="34" font-size="18" font-weight="bold" fill="#000">スコットラッセルの動きと配置の変数　K038</text>
<text x="30" y="58" font-size="12" fill="#000">作成 2026年9月29日 20:02 ／ 単位 cm ／ 座標系 D00-001〜003（x:左壁内面0→右+、d:前壁内面0→LP側+、h:床0→上+）</text>
<text x="30" y="78" font-size="12" fill="#000">SC・CSP・PJは未設置・未調達（計画段階）。SC・PJの位置は前提条件（仮設定）による。梁3の見守りカメラは位置未計測のため不記載。</text>
<text x="30" y="98" font-size="12" fill="#000">STEP4 4-1：スコットラッセル機構（OA=AB=AC=a、Bが直線上をすべるとCはBの直線に直角な直線上を動く）をSTEP2の配置にあてはめた例。例の値は決定ではない。</text>
<text x="30" y="118" font-size="12" fill="#000">必要な経路：水平から78.36°（SC側へ前15.5・下75.26、距離76.84。A03-006）→ Bのすべる直線は経路に直角で、LP側へ11.64°下がる。</text>
<text x="30" y="138" font-size="12" fill="#000">例（取付点C＝CSP側面の断面の中心、O h=268、a=45）：OC 収納12.37→使用89.21、φ 7.9°→82.4°。Bの収納位置 d=151.5 h=250.0（Oからの距離89.1）。この条件で a≧44.60。</text>
<text x="30" y="158" font-size="12" fill="#000">黄（側面図）：左リンク内側の面 x=110.9 での配光118°の断面。この面では h≦262.2 で配光に入る（照明3灯 d=130・175・220）。黄（正面図）：配光118°をx方向に広げた線（照明x=129.65・220.65、K005と同じ）。</text>
<text x="30" y="178" font-size="12" fill="#000">配光の見方：正面図＝配光がx方向に広がる範囲、側面図＝配光がd方向に広がる範囲。両方に重なって初めて実際に配光の中に入る。収納時は機器・CSPが配光に入らないこと（A00-006、交渉可）。</text>
<text x="30" y="198" font-size="12" fill="#000">例のB（収納 x=110.9・d=151.5・h=250）は、正面図でも側面図でも黄に重なる＝配光の中。実際にO・照明x=129.65/d=175からの距離で確かめても、h=250での円錐半径39.0に対し距離30.1で中に入る。</text>
<text x="30" y="218" font-size="12" fill="#000">Cの点は一直線に動くが、ロッドBCはφの分だけ回る（例では約74°）。CSPの姿勢をどう保つかは別に決める必要がある。</text>
<text x="755.2" y="272" fill="#222" text-anchor="start" font-size="13" font-weight="bold">平面図（−h方向に見下ろす。上がSC側、下がLP側）</text>
<polyline points="774.4,866 774.4,309.2 1211.2,309.2" fill="none" stroke="#333333" stroke-width="2.2"/>
<polyline points="1211.2,309.2 1211.2,293.2" fill="none" stroke="#333333" stroke-width="2.2"/>
<polyline points="774.4,866 1286.4,866" fill="none" stroke="#333333" stroke-width="2.2"/>
<text x="1286.4" y="882" fill="#666" text-anchor="end" font-size="11">後壁の右端位置は未確認</text>
<text x="1273.6" y="421.2" fill="#666" text-anchor="start" font-size="11">x&gt;273：</text>
<text x="1273.6" y="435.2" fill="#666" text-anchor="start" font-size="11">壁なし</text>
<text x="1273.6" y="449.2" fill="#666" text-anchor="start" font-size="11">オープン</text>
<text x="1273.6" y="463.2" fill="#666" text-anchor="start" font-size="11">スペース</text>
<rect x="917.6" y="382" width="128.8" height="411.2" fill="#2E9E6B" fill-opacity="0.13" stroke="#2E9E6B" stroke-width="0"/>
<rect x="847.2" y="382" width="416" height="411.2" fill="none" fill-opacity="0.3" stroke="#333333" stroke-width="1.2"/>
<rect x="900.8" y="382" width="16.8" height="411.2" fill="#8a857a" fill-opacity="0.55" stroke="#8a857a" stroke-width="0.8"/>
<rect x="1046.4" y="382" width="16.8" height="411.2" fill="#8a857a" fill-opacity="0.55" stroke="#8a857a" stroke-width="0.8"/>
<rect x="1192" y="382" width="16.8" height="411.2" fill="#8a857a" fill-opacity="0.55" stroke="#8a857a" stroke-width="0.8"/>
<circle cx="981.8" cy="517.2" r="9.1" fill="#BA7517" fill-opacity="0.55" stroke="#BA7517" stroke-width="1.0"/>
<circle cx="981.8" cy="589.2" r="9.1" fill="#BA7517" fill-opacity="0.55" stroke="#BA7517" stroke-width="1.0"/>
<circle cx="981.8" cy="661.2" r="9.1" fill="#BA7517" fill-opacity="0.55" stroke="#BA7517" stroke-width="1.0"/>
<circle cx="1127.4" cy="517.2" r="9.1" fill="#BA7517" fill-opacity="0.55" stroke="#BA7517" stroke-width="1.0"/>
<circle cx="1127.4" cy="589.2" r="9.1" fill="#BA7517" fill-opacity="0.55" stroke="#BA7517" stroke-width="1.0"/>
<circle cx="1127.4" cy="661.2" r="9.1" fill="#BA7517" fill-opacity="0.55" stroke="#BA7517" stroke-width="1.0"/>
<polyline points="790.4,331.6 1180.8,331.6" fill="none" stroke="#5B8DB8" stroke-width="1.6"/>
<polyline points="796.8,336.4 796.8,587.6" fill="none" stroke="#5B8DB8" stroke-width="1.6"/>
<rect x="803.1" y="342" width="409.8" height="21.4" fill="#dddddd" fill-opacity="0.6" stroke="#111111" stroke-width="1.0" stroke-dasharray="6 3"/>
<polyline points="830.9,349.2 1185.1,349.2" fill="none" stroke="#111111" stroke-width="3" stroke-dasharray="6 3"/>
<circle cx="986.4" cy="741.2" r="4" fill="#6A5FD0" fill-opacity="1" stroke="#6A5FD0" stroke-width="1.0"/>
<circle cx="1103.2" cy="741.2" r="4" fill="#6A5FD0" fill-opacity="1" stroke="#6A5FD0" stroke-width="1.0"/>
<polyline points="1044.8,730 1044.8,752.4" fill="none" stroke="#6A5FD0" stroke-width="1.4"/>
<circle cx="1008" cy="797.2" r="4.5" fill="white" fill-opacity="1" stroke="#D85A30" stroke-width="2"/>
<text x="909.2" y="377" fill="#222" text-anchor="middle" font-size="11" font-weight="bold">梁1</text>
<text x="1054.8" y="377" fill="#222" text-anchor="middle" font-size="11" font-weight="bold">梁2</text>
<text x="1200.4" y="377" fill="#222" text-anchor="middle" font-size="11" font-weight="bold">梁3</text>
<text x="982" y="482" fill="#2E9E6B" text-anchor="middle" font-size="11" font-weight="bold">設置エリア</text>
<text x="982" y="496" fill="#2E9E6B" text-anchor="middle" font-size="11">x=89.5〜170</text>
<text x="1263.2" y="809.2" fill="#222" text-anchor="end" font-size="11">梁領域 x=45.5〜305.5 / d=45.5〜302.5</text>
<text x="1216.9" y="356.7" fill="#222" text-anchor="start" font-size="11">(SCケース・映像面)</text>
<text x="979.4" y="745.2" fill="#6A5FD0" text-anchor="end" font-size="11">LLP x=132.5</text>
<text x="1110.2" y="745.2" fill="#6A5FD0" text-anchor="start" font-size="11">RLP x=205.5</text>
<text x="1044.8" y="763.2" fill="#6A5FD0" text-anchor="middle" font-size="11">中央169</text>
<text x="1000" y="801.2" fill="#D85A30" text-anchor="end" font-size="11">(PJレンズ d=305)</text>
<text x="801.8" y="485.2" fill="#5B8DB8" text-anchor="start" font-size="11" transform="rotate(90 801.8 485.2)">カーテン2</text>
<text x="1094.4" y="343.6" fill="#5B8DB8" text-anchor="start" font-size="11">カーテン1</text>
<text x="778.4" y="861" fill="#222" text-anchor="start" font-size="11">d=348</text>
<circle cx="774.4" cy="309.2" r="3.5" fill="none" stroke="#000"/>
<line x1="774.4" y1="309.2" x2="814.4" y2="309.2" stroke="#000" stroke-width="1" marker-end="url(#ar)"/>
<line x1="774.4" y1="309.2" x2="774.4" y2="349.2" stroke="#000" stroke-width="1" marker-end="url(#ar)"/>
<text x="818.4" y="313.2" fill="#000" text-anchor="start" font-size="11">+x</text>
<text x="778.4" y="361.2" fill="#000" text-anchor="start" font-size="11">+d</text>
<text x="768.4" y="303.2" fill="#000" text-anchor="end" font-size="11">O</text>
<text x="755.2" y="937.2" fill="#222" text-anchor="start" font-size="13" font-weight="bold">正面図（−d方向を見る。LP側からSC側）</text>
<polyline points="755.2,1411.2 1310.4,1411.2" fill="none" stroke="#333333" stroke-width="2.2"/>
<polyline points="774.4,1411.2 774.4,1011.2 847.2,1011.2 847.2,979.2 1263.2,979.2 1263.2,1011.2 1310.4,1011.2" fill="none" stroke="#333333" stroke-width="2.2"/>
<polyline points="1211.2,1411.2 1211.2,1011.2" fill="none" stroke="#999" stroke-width="1"/>
<text x="1215.2" y="1219.2" fill="#666" text-anchor="start" font-size="11">前壁右端 x=273</text>
<rect x="917.6" y="979.2" width="128.8" height="44" fill="#2E9E6B" fill-opacity="0.13" stroke="#2E9E6B" stroke-width="0"/>
<rect x="900.8" y="979.2" width="16.8" height="24.8" fill="#8a857a" fill-opacity="0.55" stroke="#8a857a" stroke-width="0.8"/>
<rect x="1046.4" y="979.2" width="16.8" height="24.8" fill="#8a857a" fill-opacity="0.55" stroke="#8a857a" stroke-width="0.8"/>
<rect x="1192" y="979.2" width="16.8" height="24.8" fill="#8a857a" fill-opacity="0.55" stroke="#8a857a" stroke-width="0.8"/>
<rect x="972.7" y="979.2" width="18.2" height="2.4" fill="#BA7517" fill-opacity="1" stroke="#BA7517" stroke-width="1.0"/>
<rect x="1118.3" y="979.2" width="18.2" height="2.4" fill="#BA7517" fill-opacity="1" stroke="#BA7517" stroke-width="1.0"/>
<rect x="803.1" y="1011.2" width="409.8" height="21.6" fill="#dddddd" fill-opacity="0.6" stroke="#111111" stroke-width="1.0" stroke-dasharray="6 3"/>
<rect x="830.9" y="1153.6" width="354.2" height="199.2" fill="#ffffff" fill-opacity="0.7" stroke="#111111" stroke-width="1.8" stroke-dasharray="6 3"/>
<circle cx="1008" cy="1253.2" r="2.5" fill="#111111" fill-opacity="1" stroke="#111111" stroke-width="1.0"/>
<circle cx="986.4" cy="1251.2" r="4" fill="#6A5FD0" fill-opacity="1" stroke="#6A5FD0" stroke-width="1.0"/>
<circle cx="1103.2" cy="1251.2" r="4" fill="#6A5FD0" fill-opacity="1" stroke="#6A5FD0" stroke-width="1.0"/>
<polyline points="1044.8,1262.4 1044.8,1240" fill="none" stroke="#6A5FD0" stroke-width="1.4"/>
<circle cx="1008" cy="1064" r="4.5" fill="white" fill-opacity="1" stroke="#D85A30" stroke-width="2"/>
<text x="909.2" y="974.2" fill="#222" text-anchor="middle" font-size="11" font-weight="bold">梁1</text>
<text x="1054.8" y="974.2" fill="#222" text-anchor="middle" font-size="11" font-weight="bold">梁2</text>
<text x="1200.4" y="974.2" fill="#222" text-anchor="middle" font-size="11" font-weight="bold">梁3</text>
<text x="778.4" y="1006.2" fill="#222" text-anchor="start" font-size="11">天井 h=250</text>
<text x="1267.2" y="983.2" fill="#222" text-anchor="start" font-size="11">掘込面 h=270</text>
<text x="1267.2" y="1016" fill="#222" text-anchor="start" font-size="11">梁下面 h=254.5</text>
<text x="807.1" y="1045.8" fill="#222" text-anchor="start" font-size="11">(SCケース h=236.5〜250)</text>
<text x="1008" y="1169.6" fill="#222" text-anchor="middle" font-size="11">(SC映像面 h=36.5〜161)</text>
<text x="1008" y="1231.2" fill="#222" text-anchor="middle" font-size="11">(中心 x=146 h=98.75)</text>
<text x="979.4" y="1255.2" fill="#6A5FD0" text-anchor="end" font-size="11">LLP</text>
<text x="1110.2" y="1255.2" fill="#6A5FD0" text-anchor="start" font-size="11">RLP</text>
<text x="1044.8" y="1273.2" fill="#6A5FD0" text-anchor="middle" font-size="11">目 h=100</text>
<text x="1017" y="1068" fill="#D85A30" text-anchor="start" font-size="11">(PJレンズ h=217)</text>
<text x="1302.4" y="1123.2" fill="#666" text-anchor="end" font-size="11">右側 開放</text>
<circle cx="774.4" cy="1411.2" r="3.5" fill="none" stroke="#000"/>
<line x1="774.4" y1="1411.2" x2="814.4" y2="1411.2" stroke="#000" stroke-width="1" marker-end="url(#ar)"/>
<line x1="774.4" y1="1411.2" x2="774.4" y2="1371.2" stroke="#000" stroke-width="1" marker-end="url(#ar)"/>
<text x="818.4" y="1415.2" fill="#000" text-anchor="start" font-size="11">+x</text>
<text x="778.4" y="1367.2" fill="#000" text-anchor="start" font-size="11">+h</text>
<text x="768.4" y="1427.2" fill="#000" text-anchor="end" font-size="11">O</text>
<text x="70" y="937.2" fill="#222" text-anchor="start" font-size="13" font-weight="bold">側面図（+x方向を見る。左壁側から）</text>
<polyline points="70,1411.2 665.2,1411.2" fill="none" stroke="#333333" stroke-width="2.2"/>
<polyline points="89.2,1411.2 89.2,1011.2 162,1011.2 162,979.2 573.2,979.2 573.2,1011.2 646,1011.2 646,1411.2" fill="none" stroke="#333333" stroke-width="2.2"/>
<rect x="162" y="979.2" width="411.2" height="24.8" fill="#8a857a" fill-opacity="0.4" stroke="#8a857a" stroke-width="0.8"/>
<rect x="288.1" y="979.2" width="18.2" height="2.4" fill="#BA7517" fill-opacity="1" stroke="#BA7517" stroke-width="1.0"/>
<rect x="360.1" y="979.2" width="18.2" height="2.4" fill="#BA7517" fill-opacity="1" stroke="#BA7517" stroke-width="1.0"/>
<rect x="432.1" y="979.2" width="18.2" height="2.4" fill="#BA7517" fill-opacity="1" stroke="#BA7517" stroke-width="1.0"/>
<rect x="122" y="1011.2" width="21.4" height="21.6" fill="#dddddd" fill-opacity="0.6" stroke="#111111" stroke-width="1.0" stroke-dasharray="6 3"/>
<polyline points="129.2,1032.8 129.2,1153.6" fill="none" stroke="#111111" stroke-width="0.8" stroke-dasharray="6 3"/>
<polyline points="129.2,1352.8 129.2,1153.6" fill="none" stroke="#111111" stroke-width="3" stroke-dasharray="6 3"/>
<circle cx="521.2" cy="1251.2" r="4" fill="#6A5FD0" fill-opacity="1" stroke="#6A5FD0" stroke-width="1.0"/>
<circle cx="577.2" cy="1064" r="4.5" fill="white" fill-opacity="1" stroke="#D85A30" stroke-width="2"/>
<text x="367.6" y="1018" fill="#222" text-anchor="middle" font-size="11">梁（梁1〜3が重なる） h=254.5〜270</text>
<text x="162" y="974.2" fill="#222" text-anchor="middle" font-size="11">d=45.5</text>
<text x="573.2" y="974.2" fill="#222" text-anchor="middle" font-size="11">d=302.5</text>
<text x="135.2" y="1203.2" fill="#222" text-anchor="start" font-size="11">(SC映像面 d=25)</text>
<text x="135.2" y="1227.2" fill="#222" text-anchor="start" font-size="11">(ケース d=20.5〜33.9)</text>
<text x="513.2" y="1243.2" fill="#6A5FD0" text-anchor="end" font-size="11">LLP・RLP 目 d=270 h=100</text>
<text x="569.2" y="1056" fill="#D85A30" text-anchor="end" font-size="11">(PJレンズ d=305 h=217)</text>
<text x="642" y="1006.2" fill="#222" text-anchor="end" font-size="11">d=348</text>
<circle cx="89.2" cy="1411.2" r="3.5" fill="none" stroke="#000"/>
<line x1="89.2" y1="1411.2" x2="129.2" y2="1411.2" stroke="#000" stroke-width="1" marker-end="url(#ar)"/>
<line x1="89.2" y1="1411.2" x2="89.2" y2="1371.2" stroke="#000" stroke-width="1" marker-end="url(#ar)"/>
<text x="133.2" y="1415.2" fill="#000" text-anchor="start" font-size="11">+d</text>
<text x="93.2" y="1367.2" fill="#000" text-anchor="start" font-size="11">+h</text>
<text x="83.2" y="1427.2" fill="#000" text-anchor="end" font-size="11">O</text>
<rect x="951.8" y="386.8" width="91.4" height="42.3" fill="#2C6FB0" fill-opacity="0.15" stroke="#2C6FB0" stroke-width="1.4" stroke-dasharray="6 3"/>
<rect x="951.8" y="982.4" width="91.4" height="38.8" fill="#2C6FB0" fill-opacity="0.15" stroke="#2C6FB0" stroke-width="1.4" stroke-dasharray="6 3"/>
<polygon points="166.8,1007.2 198.1,1021.2 209.1,996.3 177.9,982.4" fill="#2C6FB0" fill-opacity="0.18" stroke="#2C6FB0" stroke-width="1.4" stroke-dasharray="6 3"/>
<rect x="951.8" y="362" width="91.4" height="42.3" fill="#C0392B" fill-opacity="0.15" stroke="#C0392B" stroke-width="1.4" stroke-dasharray="6 3"/>
<rect x="951.8" y="1102.8" width="91.4" height="38.8" fill="#C0392B" fill-opacity="0.15" stroke="#C0392B" stroke-width="1.4" stroke-dasharray="6 3"/>
<polygon points="142,1127.7 173.3,1141.6 184.3,1116.7 153.1,1102.8" fill="#C0392B" fill-opacity="0.18" stroke="#C0392B" stroke-width="1.4" stroke-dasharray="6 3"/>
<polygon points="292.1,992 286.8,992.8 283.2,993.6 280.3,994.4 277.8,995.2 275.4,996 273.2,996.8 271.1,997.6 269.2,998.4 267.2,999.2 265.4,1000 263.6,1000.8 261.8,1001.6 260.1,1002.4 258.4,1003.2 256.7,1004 255.1,1004.8 253.4,1005.6 251.8,1006.4 250.2,1007.2 248.7,1008 247.1,1008.8 245.6,1009.6 244,1010.4 242.5,1011.2 241,1012 239.5,1012.8 238,1013.6 236.5,1014.4 235,1015.2 233.6,1016 232.1,1016.8 230.6,1017.6 229.2,1018.4 227.7,1019.2 226.3,1020 224.8,1020.8 223.4,1021.6 221.9,1022.4 220.5,1023.2 219.1,1024 217.7,1024.8 216.2,1025.6 214.8,1026.4 213.4,1027.2 381,1027.2 379.6,1026.4 378.2,1025.6 376.7,1024.8 375.3,1024 373.9,1023.2 372.5,1022.4 371,1021.6 369.6,1020.8 368.1,1020 366.7,1019.2 365.2,1018.4 363.8,1017.6 362.3,1016.8 360.8,1016 359.4,1015.2 357.9,1014.4 356.4,1013.6 354.9,1012.8 353.4,1012 351.9,1011.2 350.4,1010.4 348.8,1009.6 347.3,1008.8 345.7,1008 344.2,1007.2 342.6,1006.4 341,1005.6 339.3,1004.8 337.7,1004 336,1003.2 334.3,1002.4 332.6,1001.6 330.8,1000.8 329,1000 327.2,999.2 325.2,998.4 323.3,997.6 321.2,996.8 319,996 316.6,995.2 314.1,994.4 311.2,993.6 307.6,992.8 302.3,992" fill="#BA7517" fill-opacity="0.18" stroke="#BA7517" stroke-width="1.0"/>
<polygon points="364.1,992 358.8,992.8 355.2,993.6 352.3,994.4 349.8,995.2 347.4,996 345.2,996.8 343.1,997.6 341.2,998.4 339.2,999.2 337.4,1000 335.6,1000.8 333.8,1001.6 332.1,1002.4 330.4,1003.2 328.7,1004 327.1,1004.8 325.4,1005.6 323.8,1006.4 322.2,1007.2 320.7,1008 319.1,1008.8 317.6,1009.6 316,1010.4 314.5,1011.2 313,1012 311.5,1012.8 310,1013.6 308.5,1014.4 307,1015.2 305.6,1016 304.1,1016.8 302.6,1017.6 301.2,1018.4 299.7,1019.2 298.3,1020 296.8,1020.8 295.4,1021.6 293.9,1022.4 292.5,1023.2 291.1,1024 289.7,1024.8 288.2,1025.6 286.8,1026.4 285.4,1027.2 453,1027.2 451.6,1026.4 450.2,1025.6 448.7,1024.8 447.3,1024 445.9,1023.2 444.5,1022.4 443,1021.6 441.6,1020.8 440.1,1020 438.7,1019.2 437.2,1018.4 435.8,1017.6 434.3,1016.8 432.8,1016 431.4,1015.2 429.9,1014.4 428.4,1013.6 426.9,1012.8 425.4,1012 423.9,1011.2 422.4,1010.4 420.8,1009.6 419.3,1008.8 417.7,1008 416.2,1007.2 414.6,1006.4 413,1005.6 411.3,1004.8 409.7,1004 408,1003.2 406.3,1002.4 404.6,1001.6 402.8,1000.8 401,1000 399.2,999.2 397.2,998.4 395.3,997.6 393.2,996.8 391,996 388.6,995.2 386.1,994.4 383.2,993.6 379.6,992.8 374.3,992" fill="#BA7517" fill-opacity="0.18" stroke="#BA7517" stroke-width="1.0"/>
<polygon points="436.1,992 430.8,992.8 427.2,993.6 424.3,994.4 421.8,995.2 419.4,996 417.2,996.8 415.1,997.6 413.2,998.4 411.2,999.2 409.4,1000 407.6,1000.8 405.8,1001.6 404.1,1002.4 402.4,1003.2 400.7,1004 399.1,1004.8 397.4,1005.6 395.8,1006.4 394.2,1007.2 392.7,1008 391.1,1008.8 389.6,1009.6 388,1010.4 386.5,1011.2 385,1012 383.5,1012.8 382,1013.6 380.5,1014.4 379,1015.2 377.6,1016 376.1,1016.8 374.6,1017.6 373.2,1018.4 371.7,1019.2 370.3,1020 368.8,1020.8 367.4,1021.6 365.9,1022.4 364.5,1023.2 363.1,1024 361.7,1024.8 360.2,1025.6 358.8,1026.4 357.4,1027.2 525,1027.2 523.6,1026.4 522.2,1025.6 520.7,1024.8 519.3,1024 517.9,1023.2 516.5,1022.4 515,1021.6 513.6,1020.8 512.1,1020 510.7,1019.2 509.2,1018.4 507.8,1017.6 506.3,1016.8 504.8,1016 503.4,1015.2 501.9,1014.4 500.4,1013.6 498.9,1012.8 497.4,1012 495.9,1011.2 494.4,1010.4 492.8,1009.6 491.3,1008.8 489.7,1008 488.2,1007.2 486.6,1006.4 485,1005.6 483.3,1004.8 481.7,1004 480,1003.2 478.3,1002.4 476.6,1001.6 474.8,1000.8 473,1000 471.2,999.2 469.2,998.4 467.3,997.6 465.2,996.8 463,996 460.6,995.2 458.1,994.4 455.2,993.6 451.6,992.8 446.3,992" fill="#BA7517" fill-opacity="0.18" stroke="#BA7517" stroke-width="1.0"/>
<polygon points="972.7,979.2 991,979.2 1070.8,1027.2 892.8,1027.2" fill="#BA7517" fill-opacity="0.15" stroke="#BA7517" stroke-width="1.0"/>
<polygon points="1118.3,979.2 1136.6,979.2 1216.4,1027.2 1038.4,1027.2" fill="#BA7517" fill-opacity="0.15" stroke="#BA7517" stroke-width="1.0"/>
<polyline points="192.9,977.7 160.6,1134.7" fill="none" stroke="#555555" stroke-width="1.0" stroke-dasharray="6 3"/>
<polyline points="192,982.4 331.7,1011.2" fill="none" stroke="#6A5FD0" stroke-width="2.4" stroke-dasharray="6 3"/>
<polyline points="192,982.4 259.8,1006.5" fill="none" stroke="#2C6FB0" stroke-width="2.2" stroke-dasharray="6 3"/>
<polyline points="331.7,1011.2 188,1001.8" fill="none" stroke="#2C6FB0" stroke-width="2.2" stroke-dasharray="6 3"/>
<circle cx="259.8" cy="1006.5" r="3.2" fill="#2C6FB0" fill-opacity="1" stroke="#2C6FB0" stroke-width="1.0"/>
<text x="259.8" y="998.5" fill="#2C6FB0" text-anchor="middle" font-size="11">A(収)</text>
<circle cx="331.7" cy="1011.2" r="3.2" fill="#2C6FB0" fill-opacity="1" stroke="#2C6FB0" stroke-width="1.0"/>
<text x="337.7" y="1027.2" fill="#2C6FB0" text-anchor="start" font-size="11">B(収)</text>
<circle cx="188" cy="1001.8" r="3.2" fill="#2C6FB0" fill-opacity="1" stroke="#2C6FB0" stroke-width="1.0"/>
<text x="182" y="995.8" fill="#2C6FB0" text-anchor="end" font-size="11">C(収)</text>
<polyline points="192,982.4 186.9,1054.2" fill="none" stroke="#C0392B" stroke-width="2.2" stroke-dasharray="6 3"/>
<polyline points="210.6,986.2 163.2,1122.2" fill="none" stroke="#C0392B" stroke-width="2.2" stroke-dasharray="6 3"/>
<circle cx="186.9" cy="1054.2" r="3.2" fill="#C0392B" fill-opacity="1" stroke="#C0392B" stroke-width="1.0"/>
<text x="178.9" y="1054.2" fill="#C0392B" text-anchor="end" font-size="11">A(使)</text>
<circle cx="210.6" cy="986.2" r="3.2" fill="#C0392B" fill-opacity="1" stroke="#C0392B" stroke-width="1.0"/>
<text x="217.6" y="1002.2" fill="#C0392B" text-anchor="start" font-size="11">B(使)</text>
<circle cx="163.2" cy="1122.2" r="3.2" fill="#C0392B" fill-opacity="1" stroke="#C0392B" stroke-width="1.0"/>
<text x="171.2" y="1136.2" fill="#C0392B" text-anchor="start" font-size="11">C(使)</text>
<circle cx="192" cy="982.4" r="4.5" fill="white" fill-opacity="1" stroke="#111111" stroke-width="2"/>
<text x="200" y="974.4" fill="#111111" text-anchor="start" font-size="11">O(固定 h=268)</text>
<text x="70" y="300" font-size="13" font-weight="bold" fill="#000">凡例</text>
<line x1="70" y1="318" x2="100" y2="318" stroke="#333333" stroke-width="2.2"/>
<text x="110" y="322" font-size="12" fill="#000">黒 太線：壁・床・天井（部屋.xlsx）</text>
<line x1="70" y1="340" x2="100" y2="340" stroke="#8a857a" stroke-width="6"/>
<text x="110" y="344" font-size="12" fill="#000">灰：梁（梁1・梁2・梁3）</text>
<line x1="70" y1="362" x2="100" y2="362" stroke="#BA7517" stroke-width="6"/>
<text x="110" y="366" font-size="12" fill="#000">黄：照明</text>
<line x1="70" y1="384" x2="100" y2="384" stroke="#2E9E6B" stroke-width="8"/>
<text x="110" y="388" font-size="12" fill="#000">緑：設置エリア（梁1–梁2間）</text>
<line x1="70" y1="406" x2="100" y2="406" stroke="#5B8DB8" stroke-width="2"/>
<text x="110" y="410" font-size="12" fill="#000">青：カーテン（平面図のみ表示）</text>
<line x1="70" y1="428" x2="100" y2="428" stroke="#111111" stroke-width="2" stroke-dasharray="6 3"/>
<text x="110" y="432" font-size="12" fill="#000">破線・( )付き：仮設定、または仮設定を含む計算値</text>
<line x1="70" y1="450" x2="100" y2="450" stroke="#111111" stroke-width="3" stroke-dasharray="6 3"/>
<text x="110" y="454" font-size="12" fill="#000">　SC：A00-003＋製品寸法図、ケースは天井付け</text>
<circle cx="85" cy="472" r="4" fill="#6A5FD0"/>
<text x="110" y="476" font-size="12" fill="#000">紫●：視聴位置 LLP（左）・RLP（右）、目の高さ</text>
<circle cx="85" cy="494" r="4.5" fill="white" stroke="#D85A30" stroke-width="2"/>
<text x="110" y="498" font-size="12" fill="#000">朱○：PJレンズ中心（A00-004）</text>
<line x1="70" y1="516" x2="100" y2="516" stroke="#2C6FB0" stroke-width="2" stroke-dasharray="6 3"/>
<text x="110" y="520" font-size="12" fill="#000">破線：CSP 収納（チルト24°）</text>
<line x1="70" y1="538" x2="100" y2="538" stroke="#C0392B" stroke-width="2" stroke-dasharray="6 3"/>
<text x="110" y="542" font-size="12" fill="#000">破線：CSP 使用（チルト24°）</text>
<line x1="70" y1="560" x2="100" y2="560" stroke="#555555" stroke-width="2" stroke-dasharray="6 3"/>
<text x="110" y="564" font-size="12" fill="#000">灰 破線：取付点Cの一直線の経路（延長を含む）</text>
<line x1="70" y1="582" x2="100" y2="582" stroke="#6A5FD0" stroke-width="2" stroke-dasharray="6 3"/>
<text x="110" y="586" font-size="12" fill="#000">紫 太破線：Bのすべる直線（O〜収納時のB）</text>
<line x1="70" y1="604" x2="100" y2="604" stroke="#2C6FB0" stroke-width="2" stroke-dasharray="6 3"/>
<text x="110" y="608" font-size="12" fill="#000">青／赤 破線：リンクOA・BC（収納／使用、例 a=45）</text>
<line x1="70" y1="626" x2="100" y2="626" stroke="#BA7517" stroke-width="8"/>
<text x="110" y="630" font-size="12" fill="#000">黄 帯：配光118°の断面（x=110.9の面、側面図）</text>
<text x="70" y="674" font-size="12" fill="#000">出典：部屋.xlsx（Sheet1）、確定事項ファイル（D00-001〜004、A00-003、A00-004）、</text>
<text x="70" y="692" font-size="12" fill="#000">　　　SC製品寸法図 EP-100HM-MRW1-WF204（オーエスエム）、</text>
<text x="70" y="710" font-size="12" fill="#000">　　　依頼主回答（セッション01：SC天井付け、x&gt;273は壁なし、LP h=100は目の高さ）、</text>
<text x="70" y="728" font-size="12" fill="#000">　　　A01-001、A02-002、D03-003、A03-004〜006、</text>
<text x="70" y="746" font-size="12" fill="#000">　　　D00-005、A00-006、A02-001</text>
</svg>
