<svg xmlns="http://www.w3.org/2000/svg" viewBox="0 0 1360 1417" width="1360" height="1417" font-family="Hiragino Sans, Yu Gothic, Meiryo, Noto Sans CJK JP, Noto Sans CJK TC, sans-serif" font-size="11" xmlns:c2pa="http://c2pa.org/manifest"><metadata><c2pa:manifest>AAAWgmp1bWIAAAAeanVtZGMycGEAEQAQgAAAqgA4m3EDYzJwYQAAABZcanVtYgAAAEdqdW1kYzJtYQARABCAAACqADibcQN1cm46YzJwYToxMTcxYTNlZS1lNzY1LTQ4MzEtODBhYy1jNDlhN2ZhMjUxN2IAAAADl2p1bWIAAAApanVtZGMyYXMAEQAQgAAAqgA4m3EDYzJwYS5hc3NlcnRpb25zAAAAALxqdW1iAAAARGp1bWRjYm9yABEAEIAAAKoAOJtxE2MycGEuaW5ncmVkaWVudC52MwAAAAAYYzJzaHwN9CcNc0z2IdlflfLkj94AAABwY2JvcqNpZGM6Zm9ybWF0bWltYWdlL3N2Zyt4bWxqaW5zdGFuY2VJRHgseG1wOmlpZDo0NTU4Y2Y4MS0yNGM0LTQzN2EtYWQ3Mi05MjFkOTdiYjRkMjNscmVsYXRpb25zaGlwaHBhcmVudE9mAAAB4mp1bWIAAABBanVtZGNib3IAEQAQgAAAqgA4m3ETYzJwYS5hY3Rpb25zLnYyAAAAABhjMnNon0BL1n0rb6vdbmi1HNd5zAAAAZljYm9yomdhY3Rpb25zgqJmYWN0aW9ua2MycGEub3BlbmVkanBhcmFtZXRlcnOha2luZ3JlZGllbnRzgaJjdXJseC1zZWxmI2p1bWJmPWMycGEuYXNzZXJ0aW9ucy9jMnBhLmluZ3JlZGllbnQudjNkaGFzaFggnU79WE7AnvDJBzlg/FNINhHqonaL6JrJOUdmRYCXlWWkZmFjdGlvbngdY29tLmFudGhyb3BpYy5jbGF1ZGUucHJvdmlkZWRqcGFyYW1ldGVyc6F4H2NvbS5hbnRocm9waWMub3JpZ2luLWNvbmZpZGVuY2VndW5rbm93bmtkZXNjcmlwdGlvbnhmQ2xhdWRlIHByb3ZpZGVkIHRoaXMgZmlsZSBhdCB0aGUgcmVxdWVzdCBvZiBhIHVzZXIgYW5kIG1heSBoYXZlIGNyZWF0ZWQgb3IgbW9kaWZpZWQgdGhlIGZpbGUgY29udGVudHMubXNvZnR3YXJlQWdlbnShZG5hbWVmQ2xhdWRlcmFsbEFjdGlvbnNJbmNsdWRlZPUAAADIanVtYgAAAEBqdW1kY2JvcgARABCAAACqADibcRNjMnBhLmhhc2guZGF0YQAAAAAYYzJzaKitBOWbl8fk3dee3j0ca5MAAACAY2JvcqVjYWxnZnNoYTI1NmNwYWRMAAAAAAAAAAAAAAAAZGhhc2hYIAOco1/lrh4PpKpWfUwLp45pV1I1HfwtEjoMJ1VVgFWDZG5hbWVuanVtYmYgbWFuaWZlc3RqZXhjbHVzaW9uc4GiZXN0YXJ0GQEIZmxlbmd0aBkeBAAAAj5qdW1iAAAAJ2p1bWRjMmNsABEAEIAAAKoAOJtxA2MycGEuY2xhaW0udjIAAAACD2Nib3KlY2FsZ2ZzaGEyNTZpc2lnbmF0dXJleE1zZWxmI2p1bWJmPS9jMnBhL3VybjpjMnBhOjExNzFhM2VlLWU3NjUtNDgzMS04MGFjLWM0OWE3ZmEyNTE3Yi9jMnBhLnNpZ25hdHVyZWppbnN0YW5jZUlEeCx4bXA6aWlkOjU4YWY0NThjLTBmOWYtNDM2My04MjQ1LTNhYzdmODEwYjM2NHJjcmVhdGVkX2Fzc2VydGlvbnODomN1cmx4LXNlbGYjanVtYmY9YzJwYS5hc3NlcnRpb25zL2MycGEuaW5ncmVkaWVudC52M2RoYXNoWCCdTv1YTsCe8MkHOWD8U0g2Eeqidovomsk5R2ZFgJeVZaJjdXJseCpzZWxmI2p1bWJmPWMycGEuYXNzZXJ0aW9ucy9jMnBhLmFjdGlvbnMudjJkaGFzaFggyLiaZrspFZSogOCORb9QfaReQCcRmrg+o30mA6IZJliiY3VybHgpc2VsZiNqdW1iZj1jMnBhLmFzc2VydGlvbnMvYzJwYS5oYXNoLmRhdGFkaGFzaFggdBf6uJaScszIcCDCSIkrTSf1f4QYGIPqkWUlEV+qO3J0Y2xhaW1fZ2VuZXJhdG9yX2luZm+jZG5hbWVvQW50aHJvcGljIEZpbGVzZ3ZlcnNpb25lMS4wLjBrc3BlY1ZlcnNpb25lMi40LjAAABA4anVtYgAAAChqdW1kYzJjcwARABCAAACqADibcQNjMnBhLnNpZ25hdHVyZQAAABAIY2JvctKEWQISogEmGCFZAgowggIGMIIBjaADAgECAhRA5aAK7sI50L64g/oGQgU9Z1UTADAKBggqhkjOPQQDAzBJMRcwFQYDVQQKEw5BbnRocm9waWMsIFBCQzEuMCwGA1UEAxMlQW50aHJvcGljIENvbnRlbnQgQ3JlZGVudGlhbHMgUm9vdCBDQTAeFw0yNjA4MDcxODQzNTZaFw0yODA4MDYxOTQzNTZaMEQxFzAVBgNVBAoTDkFudGhyb3BpYywgUEJDMSkwJwYDVQQDEyBBbnRocm9waWMgQ2xhdWRlIENvbnRlbnQgU2lnbmluZzBZMBMGByqGSM49AgEGCCqGSM49AwEHA0IABJh6CmvLUBgFFNU0vUKlOVtE6djd17L5SuwX0LemFisBM3dkd/3cyjxFA3Qo5S46fX0/ihY0VZ7mfb9KF703t5OjWDBWMA4GA1UdDwEB/wQEAwIHgDAVBgNVHSUEDjAMBgorBgEEAYPoXgIBMAwGA1UdEwEB/wQCMAAwHwYDVR0jBBgwFoAUzlHiBIFOZFsj+OPEz5o+nMHXXMIwCgYIKoZIzj0EAwMDZwAwZAIwMXMdFJ4BetLLVY7ORuE9noqbbAZOZn/aArXyTwFAZfKrPzxF2vPoJNf1+UCdg1XGAjBwX1zd9WGqYkqmL5SFqw1QySjr1zJfpJM9+1rdDwSPLMOPOjKuiXjoU/pUUeG9RwmhY3BhZFkNngAAAAAAAAAAAAAAAAAAAAAAAAAAAAAAAAAAAAAAAAAAAAAAAAAAAAAAAAAAAAAAAAAAAAAAAAAAAAAAAAAAAAAAAAAAAAAAAAAAAAAAAAAAAAAAAAAAAAAAAAAAAAAAAAAAAAAAAAAAAAAAAAAAAAAAAAAAAAAAAAAAAAAAAAAAAAAAAAAAAAAAAAAAAAAAAAAAAAAAAAAAAAAAAAAAAAAAAAAAAAAAAAAAAAAAAAAAAAAAAAAAAAAAAAAAAAAAAAAAAAAAAAAAAAAAAAAAAAAAAAAAAAAAAAAAAAAAAAAAAAAAAAAAAAAAAAAAAAAAAAAAAAAAAAAAAAAAAAAAAAAAAAAAAAAAAAAAAAAAAAAAAAAAAAAAAAAAAAAAAAAAAAAAAAAAAAAAAAAAAAAAAAAAAAAAAAAAAAAAAAAAAAAAAAAAAAAAAAAAAAAAAAAAAAAAAAAAAAAAAAAAAAAAAAAAAAAAAAAAAAAAAAAAAAAAAAAAAAAAAAAAAAAAAAAAAAAAAAAAAAAAAAAAAAAAAAAAAAAAAAAAAAAAAAAAAAAAAAAAAAAAAAAAAAAAAAAAAAAAAAAAAAAAAAAAAAAAAAAAAAAAAAAAAAAAAAAAAAAAAAAAAAAAAAAAAAAAAAAAAAAAAAAAAAAAAAAAAAAAAAAAAAAAAAAAAAAAAAAAAAAAAAAAAAAAAAAAAAAAAAAAAAAAAAAAAAAAAAAAAAAAAAAAAAAAAAAAAAAAAAAAAAAAAAAAAAAAAAAAAAAAAAAAAAAAAAAAAAAAAAAAAAAAAAAAAAAAAAAAAAAAAAAAAAAAAAAAAAAAAAAAAAAAAAAAAAAAAAAAAAAAAAAAAAAAAAAAAAAAAAAAAAAAAAAAAAAAAAAAAAAAAAAAAAAAAAAAAAAAAAAAAAAAAAAAAAAAAAAAAAAAAAAAAAAAAAAAAAAAAAAAAAAAAAAAAAAAAAAAAAAAAAAAAAAAAAAAAAAAAAAAAAAAAAAAAAAAAAAAAAAAAAAAAAAAAAAAAAAAAAAAAAAAAAAAAAAAAAAAAAAAAAAAAAAAAAAAAAAAAAAAAAAAAAAAAAAAAAAAAAAAAAAAAAAAAAAAAAAAAAAAAAAAAAAAAAAAAAAAAAAAAAAAAAAAAAAAAAAAAAAAAAAAAAAAAAAAAAAAAAAAAAAAAAAAAAAAAAAAAAAAAAAAAAAAAAAAAAAAAAAAAAAAAAAAAAAAAAAAAAAAAAAAAAAAAAAAAAAAAAAAAAAAAAAAAAAAAAAAAAAAAAAAAAAAAAAAAAAAAAAAAAAAAAAAAAAAAAAAAAAAAAAAAAAAAAAAAAAAAAAAAAAAAAAAAAAAAAAAAAAAAAAAAAAAAAAAAAAAAAAAAAAAAAAAAAAAAAAAAAAAAAAAAAAAAAAAAAAAAAAAAAAAAAAAAAAAAAAAAAAAAAAAAAAAAAAAAAAAAAAAAAAAAAAAAAAAAAAAAAAAAAAAAAAAAAAAAAAAAAAAAAAAAAAAAAAAAAAAAAAAAAAAAAAAAAAAAAAAAAAAAAAAAAAAAAAAAAAAAAAAAAAAAAAAAAAAAAAAAAAAAAAAAAAAAAAAAAAAAAAAAAAAAAAAAAAAAAAAAAAAAAAAAAAAAAAAAAAAAAAAAAAAAAAAAAAAAAAAAAAAAAAAAAAAAAAAAAAAAAAAAAAAAAAAAAAAAAAAAAAAAAAAAAAAAAAAAAAAAAAAAAAAAAAAAAAAAAAAAAAAAAAAAAAAAAAAAAAAAAAAAAAAAAAAAAAAAAAAAAAAAAAAAAAAAAAAAAAAAAAAAAAAAAAAAAAAAAAAAAAAAAAAAAAAAAAAAAAAAAAAAAAAAAAAAAAAAAAAAAAAAAAAAAAAAAAAAAAAAAAAAAAAAAAAAAAAAAAAAAAAAAAAAAAAAAAAAAAAAAAAAAAAAAAAAAAAAAAAAAAAAAAAAAAAAAAAAAAAAAAAAAAAAAAAAAAAAAAAAAAAAAAAAAAAAAAAAAAAAAAAAAAAAAAAAAAAAAAAAAAAAAAAAAAAAAAAAAAAAAAAAAAAAAAAAAAAAAAAAAAAAAAAAAAAAAAAAAAAAAAAAAAAAAAAAAAAAAAAAAAAAAAAAAAAAAAAAAAAAAAAAAAAAAAAAAAAAAAAAAAAAAAAAAAAAAAAAAAAAAAAAAAAAAAAAAAAAAAAAAAAAAAAAAAAAAAAAAAAAAAAAAAAAAAAAAAAAAAAAAAAAAAAAAAAAAAAAAAAAAAAAAAAAAAAAAAAAAAAAAAAAAAAAAAAAAAAAAAAAAAAAAAAAAAAAAAAAAAAAAAAAAAAAAAAAAAAAAAAAAAAAAAAAAAAAAAAAAAAAAAAAAAAAAAAAAAAAAAAAAAAAAAAAAAAAAAAAAAAAAAAAAAAAAAAAAAAAAAAAAAAAAAAAAAAAAAAAAAAAAAAAAAAAAAAAAAAAAAAAAAAAAAAAAAAAAAAAAAAAAAAAAAAAAAAAAAAAAAAAAAAAAAAAAAAAAAAAAAAAAAAAAAAAAAAAAAAAAAAAAAAAAAAAAAAAAAAAAAAAAAAAAAAAAAAAAAAAAAAAAAAAAAAAAAAAAAAAAAAAAAAAAAAAAAAAAAAAAAAAAAAAAAAAAAAAAAAAAAAAAAAAAAAAAAAAAAAAAAAAAAAAAAAAAAAAAAAAAAAAAAAAAAAAAAAAAAAAAAAAAAAAAAAAAAAAAAAAAAAAAAAAAAAAAAAAAAAAAAAAAAAAAAAAAAAAAAAAAAAAAAAAAAAAAAAAAAAAAAAAAAAAAAAAAAAAAAAAAAAAAAAAAAAAAAAAAAAAAAAAAAAAAAAAAAAAAAAAAAAAAAAAAAAAAAAAAAAAAAAAAAAAAAAAAAAAAAAAAAAAAAAAAAAAAAAAAAAAAAAAAAAAAAAAAAAAAAAAAAAAAAAAAAAAAAAAAAAAAAAAAAAAAAAAAAAAAAAAAAAAAAAAAAAAAAAAAAAAAAAAAAAAAAAAAAAAAAAAAAAAAAAAAAAAAAAAAAAAAAAAAAAAAAAAAAAAAAAAAAAAAAAAAAAAAAAAAAAAAAAAAAAAAAAAAAAAAAAAAAAAAAAAAAAAAAAAAAAAAAAAAAAAAAAAAAAAAAAAAAAAAAAAAAAAAAAAAAAAAAAAAAAAAAAAAAAAAAAAAAAAAAAAAAAAAAAAAAAAAAAAAAAAAAAAAAAAAAAAAAAAAAAAAAAAAAAAAAAAAAAAAAAAAAAAAAAAAAAAAAAAAAAAAAAAAAAAAAAAAAAAAAAAAAAAAAAAAAAAAAAAAAAAAAAAAAAAAAAAAAAAAAAAAAAAAAAAAAAAAAAAAAAAAAAAAAAAAAAAAAAAAAAAAAAAAAAAAAAAAAAAAAAAAAAAAAAAAAAAAAAAAAAAAAAAAAAAAAAAAAAAAAAAAAAAAAAAAAAAAAAAAAAAAAAAAAAAAAAAAAAAAAAAAAAAAAAAAAAAAAAAAAAAAAAAAAAAAAAAAAAAAAAAAAAAAAAAAAAAAAAAAAAAAAAAAAAAAAAAAAAAAAAAAAAAAAAAAAAAAAAAAAAAAAAAAAAAAAAAAAAAAAAAAAAAAAAAAAAAAAAAAAAAAAAAAAAAAAAAAAAAAAAAAAAAAAAAAAAAAAAAAAAAAAAAAAAAAAAAAAAAAAAAAAAAAAAAAAAAAAAAAAAAAAAAAAAAAAAAAAAAAAAAAAAAAAAAAAAAAAAAAAAAAAAAAAAAAAAAAAAAAAAAAAAAAAAAAAAAAAAAAAAAAAAAAAAAAAAAAAAAAAAAAAAAAAAAAAAAAAAAAAAAAAAAAAAAAAAAAAAAAAAAAAAAAAAAAAAAAAAAAAAAAAAAAAAAAAAAAAAAAAAAAAAAAAAAAAAAAAAAAAAAAAAAAAAAAAAAAAAAAAAAAAAAAAAAAAAAAAAAAAAAAAAAAAAAAAAAAAAAAAAAAAAAAAAAAAAAAAAAAAAAAAAAAAAAAAAAAAAAAAAAAAAAAAAAAAAAAAAAAAAAAAAAAAAAAAAAAAAAAAAAAAAAAAAAAAAAAAAAAAAAAAAAAAAAAAAAAAAAAAAAAAAAAAAAAAAAAAAAAAAAAAAAAAAAAAAAAAAAAAAAAAAAAAAAAAAAAAAAAAAAAAAAAAAAAAAAAAAAAAAAAAAAAAAAAAAAAAAAAAAAAAAAAAAAAAAAAAAAAAAAAAAAAAAAAAAAAAAAAAAAAAAAAAAAAAAAAAAAAAAAAAAAAAAAAAAAAAAAAAAAAAAAAAAAAAAAAAAAAAAAAAAAAAAAAAAAAAAAAAAAAAAAAAAAAAAAAAAAAAAAAAAAAAAAAAAAAAAAAAAAAAAAAAAAAAAAAAAAAAAAAAAAAAAAAAAAAAAAAAAAAAAAAAAAAAAAAAAAAAAAAAAAAAAAAAAAAAAAAAAAAAAAAAAAAAAAAAAAAAAAAAAAAAAAAAAAAAAAAAAAAAAAAAAAAAAAAAAAAAAAAAAAAAAAAAAAAAAAAAAAAAAAAAAAAAAAAAAAAAAAAAAAAAAAAAAAAAAAAAAAAAAAAAAAAAAAAAAAAAAAAAAAAAAAAAAAAAAAAAAAAAAAAAAAAAAAAAAAAAAAAAAAAAAAAAAAAAAAAAAAAAAAAAAAAAAAAAAAAAAAAAAAAAAAAAAAAAAAAAAAAAAAAAAAAAAAAAAAAAAAAAAAAAAAAAAAAAAAAAAAAAAAAAAAAAAAAAAAAAAAAAAAPZYQG6mvmDOw+2fGFeWRLSB82Zo9L7uq+py7pQ/O2w8XATkCQ9niK6bVeQUAVceiM6zJRvLdmp86hASK2QTdqBIYPc=</c2pa:manifest></metadata>
<defs><marker id="ar" markerWidth="8" markerHeight="8" refX="7" refY="4" orient="auto"><path d="M0,0 L8,4 L0,8 z" fill="#000"/></marker></defs>
<rect x="0" y="0" width="1360" height="1417" fill="#ffffff"/>
<text x="30" y="34" font-size="18" font-weight="bold" fill="#000">水平鉛直版リンクの干渉　K046</text>
<text x="30" y="58" font-size="12" fill="#000">作成 2026年9月30日 22:23 ／ 単位 cm ／ 座標系 D00-001〜003（x:左壁内面0→右+、d:前壁内面0→LP側+、h:床0→上+）</text>
<text x="30" y="78" font-size="12" fill="#000">SC・CSP・PJは未設置・未調達（計画段階）。SC・PJの位置は前提条件（仮設定）による。梁3の見守りカメラは位置未計測のため不記載。</text>
<text x="30" y="98" font-size="12" fill="#000">STEP4 4-2（直線版スコットラッセル・水平鉛直版）：a=OA=AB=AC=50、O=(d=61.7,h=268)固定、Bは水平（h=268）にすべり、Cは鉛直に下がる。CSPは真下に降りる（使用d1=48.5、最下点h=171.61）。青＝収納・赤＝使用・灰＝途中7姿勢。太実線＝OAリンク、破線＝ロッドBC、黒太＝Bレール。</text>
<text x="30" y="118" font-size="12" fill="#000">全行程41姿勢の最小クリアランス（a=50）：OAリンク 2.0（掘込面(h=270)）／ロッドBC 2.0（掘込面(h=270)）／Bレール 2.0（掘込面(h=270)）／CSP本体 2.0（投射光上端面）。数値はK047。</text>
<text x="30" y="138" font-size="12" fill="#000">リンク・レールは部品を線（太さ0）として判定。部品の太さ・スライダの大きさ・保持具はまだ入っていない（すき間はこの値から太さの半分ずつ減る）。</text>
<text x="30" y="158" font-size="12" fill="#000">収納時はA・B・Cとも梁下面h=254.5より上（第3表）。使用位置はA03-005（d1=33）よりLP側へ15.5・上へ3.1。 正面図：左右リンクのx位置（wR=0で作図）。右リンクと梁2内面の間は2（c3）。wRが決まるとCSPごと左へ寄る（A03-004）。</text>
<text x="755.2" y="212" fill="#222" text-anchor="start" font-size="13" font-weight="bold">平面図（−h方向に見下ろす。上がSC側、下がLP側）</text>
<polyline points="774.4,806 774.4,249.2 1211.2,249.2" fill="none" stroke="#333333" stroke-width="2.2"/>
<polyline points="1211.2,249.2 1211.2,233.2" fill="none" stroke="#333333" stroke-width="2.2"/>
<polyline points="774.4,806 1286.4,806" fill="none" stroke="#333333" stroke-width="2.2"/>
<text x="1286.4" y="822" fill="#666" text-anchor="end" font-size="11">後壁の右端位置は未確認</text>
<text x="1273.6" y="361.2" fill="#666" text-anchor="start" font-size="11">x&gt;273：</text>
<text x="1273.6" y="375.2" fill="#666" text-anchor="start" font-size="11">壁なし</text>
<text x="1273.6" y="389.2" fill="#666" text-anchor="start" font-size="11">オープン</text>
<text x="1273.6" y="403.2" fill="#666" text-anchor="start" font-size="11">スペース</text>
<rect x="917.6" y="322" width="128.8" height="411.2" fill="#2E9E6B" fill-opacity="0.13" stroke="#2E9E6B" stroke-width="0"/>
<rect x="847.2" y="322" width="416" height="411.2" fill="none" fill-opacity="0.3" stroke="#333333" stroke-width="1.2"/>
<rect x="900.8" y="322" width="16.8" height="411.2" fill="#8a857a" fill-opacity="0.55" stroke="#8a857a" stroke-width="0.8"/>
<rect x="1046.4" y="322" width="16.8" height="411.2" fill="#8a857a" fill-opacity="0.55" stroke="#8a857a" stroke-width="0.8"/>
<rect x="1192" y="322" width="16.8" height="411.2" fill="#8a857a" fill-opacity="0.55" stroke="#8a857a" stroke-width="0.8"/>
<circle cx="981.8" cy="457.2" r="9.1" fill="#BA7517" fill-opacity="0.55" stroke="#BA7517" stroke-width="1.0"/>
<circle cx="981.8" cy="529.2" r="9.1" fill="#BA7517" fill-opacity="0.55" stroke="#BA7517" stroke-width="1.0"/>
<circle cx="981.8" cy="601.2" r="9.1" fill="#BA7517" fill-opacity="0.55" stroke="#BA7517" stroke-width="1.0"/>
<circle cx="1127.4" cy="457.2" r="9.1" fill="#BA7517" fill-opacity="0.55" stroke="#BA7517" stroke-width="1.0"/>
<circle cx="1127.4" cy="529.2" r="9.1" fill="#BA7517" fill-opacity="0.55" stroke="#BA7517" stroke-width="1.0"/>
<circle cx="1127.4" cy="601.2" r="9.1" fill="#BA7517" fill-opacity="0.55" stroke="#BA7517" stroke-width="1.0"/>
<polyline points="790.4,271.6 1180.8,271.6" fill="none" stroke="#5B8DB8" stroke-width="1.6"/>
<polyline points="796.8,276.4 796.8,527.6" fill="none" stroke="#5B8DB8" stroke-width="1.6"/>
<rect x="803.1" y="282" width="409.8" height="21.4" fill="#dddddd" fill-opacity="0.6" stroke="#111111" stroke-width="1.0" stroke-dasharray="6 3"/>
<polyline points="830.9,289.2 1185.1,289.2" fill="none" stroke="#111111" stroke-width="3" stroke-dasharray="6 3"/>
<circle cx="986.4" cy="681.2" r="4" fill="#6A5FD0" fill-opacity="1" stroke="#6A5FD0" stroke-width="1.0"/>
<circle cx="1103.2" cy="681.2" r="4" fill="#6A5FD0" fill-opacity="1" stroke="#6A5FD0" stroke-width="1.0"/>
<polyline points="1044.8,670 1044.8,692.4" fill="none" stroke="#6A5FD0" stroke-width="1.4"/>
<circle cx="1008" cy="737.2" r="4.5" fill="white" fill-opacity="1" stroke="#D85A30" stroke-width="2"/>
<text x="909.2" y="317" fill="#222" text-anchor="middle" font-size="11" font-weight="bold">梁1</text>
<text x="1054.8" y="317" fill="#222" text-anchor="middle" font-size="11" font-weight="bold">梁2</text>
<text x="1200.4" y="317" fill="#222" text-anchor="middle" font-size="11" font-weight="bold">梁3</text>
<text x="982" y="422" fill="#2E9E6B" text-anchor="middle" font-size="11" font-weight="bold">設置エリア</text>
<text x="982" y="436" fill="#2E9E6B" text-anchor="middle" font-size="11">x=89.5〜170</text>
<text x="1263.2" y="749.2" fill="#222" text-anchor="end" font-size="11">梁領域 x=45.5〜305.5 / d=45.5〜302.5</text>
<text x="1216.9" y="296.7" fill="#222" text-anchor="start" font-size="11">(SCケース・映像面)</text>
<text x="979.4" y="685.2" fill="#6A5FD0" text-anchor="end" font-size="11">LLP x=132.5</text>
<text x="1110.2" y="685.2" fill="#6A5FD0" text-anchor="start" font-size="11">RLP x=205.5</text>
<text x="1044.8" y="703.2" fill="#6A5FD0" text-anchor="middle" font-size="11">中央169</text>
<text x="1000" y="741.2" fill="#D85A30" text-anchor="end" font-size="11">(PJレンズ d=305)</text>
<text x="801.8" y="425.2" fill="#5B8DB8" text-anchor="start" font-size="11" transform="rotate(90 801.8 425.2)">カーテン2</text>
<text x="1094.4" y="283.6" fill="#5B8DB8" text-anchor="start" font-size="11">カーテン1</text>
<text x="778.4" y="801" fill="#222" text-anchor="start" font-size="11">d=348</text>
<circle cx="774.4" cy="249.2" r="3.5" fill="none" stroke="#000"/>
<line x1="774.4" y1="249.2" x2="814.4" y2="249.2" stroke="#000" stroke-width="1" marker-end="url(#ar)"/>
<line x1="774.4" y1="249.2" x2="774.4" y2="289.2" stroke="#000" stroke-width="1" marker-end="url(#ar)"/>
<text x="818.4" y="253.2" fill="#000" text-anchor="start" font-size="11">+x</text>
<text x="778.4" y="301.2" fill="#000" text-anchor="start" font-size="11">+d</text>
<text x="768.4" y="243.2" fill="#000" text-anchor="end" font-size="11">O</text>
<text x="755.2" y="877.2" fill="#222" text-anchor="start" font-size="13" font-weight="bold">正面図（−d方向を見る。LP側からSC側）</text>
<polyline points="755.2,1351.2 1310.4,1351.2" fill="none" stroke="#333333" stroke-width="2.2"/>
<polyline points="774.4,1351.2 774.4,951.2 847.2,951.2 847.2,919.2 1263.2,919.2 1263.2,951.2 1310.4,951.2" fill="none" stroke="#333333" stroke-width="2.2"/>
<polyline points="1211.2,1351.2 1211.2,951.2" fill="none" stroke="#999" stroke-width="1"/>
<text x="1215.2" y="1159.2" fill="#666" text-anchor="start" font-size="11">前壁右端 x=273</text>
<rect x="917.6" y="919.2" width="128.8" height="44" fill="#2E9E6B" fill-opacity="0.13" stroke="#2E9E6B" stroke-width="0"/>
<rect x="900.8" y="919.2" width="16.8" height="24.8" fill="#8a857a" fill-opacity="0.55" stroke="#8a857a" stroke-width="0.8"/>
<rect x="1046.4" y="919.2" width="16.8" height="24.8" fill="#8a857a" fill-opacity="0.55" stroke="#8a857a" stroke-width="0.8"/>
<rect x="1192" y="919.2" width="16.8" height="24.8" fill="#8a857a" fill-opacity="0.55" stroke="#8a857a" stroke-width="0.8"/>
<rect x="972.7" y="919.2" width="18.2" height="2.4" fill="#BA7517" fill-opacity="1" stroke="#BA7517" stroke-width="1.0"/>
<rect x="1118.3" y="919.2" width="18.2" height="2.4" fill="#BA7517" fill-opacity="1" stroke="#BA7517" stroke-width="1.0"/>
<rect x="803.1" y="951.2" width="409.8" height="21.6" fill="#dddddd" fill-opacity="0.6" stroke="#111111" stroke-width="1.0" stroke-dasharray="6 3"/>
<rect x="830.9" y="1093.6" width="354.2" height="199.2" fill="#ffffff" fill-opacity="0.7" stroke="#111111" stroke-width="1.8" stroke-dasharray="6 3"/>
<circle cx="1008" cy="1193.2" r="2.5" fill="#111111" fill-opacity="1" stroke="#111111" stroke-width="1.0"/>
<circle cx="986.4" cy="1191.2" r="4" fill="#6A5FD0" fill-opacity="1" stroke="#6A5FD0" stroke-width="1.0"/>
<circle cx="1103.2" cy="1191.2" r="4" fill="#6A5FD0" fill-opacity="1" stroke="#6A5FD0" stroke-width="1.0"/>
<polyline points="1044.8,1202.4 1044.8,1180" fill="none" stroke="#6A5FD0" stroke-width="1.4"/>
<circle cx="1008" cy="1004" r="4.5" fill="white" fill-opacity="1" stroke="#D85A30" stroke-width="2"/>
<text x="909.2" y="914.2" fill="#222" text-anchor="middle" font-size="11" font-weight="bold">梁1</text>
<text x="1054.8" y="914.2" fill="#222" text-anchor="middle" font-size="11" font-weight="bold">梁2</text>
<text x="1200.4" y="914.2" fill="#222" text-anchor="middle" font-size="11" font-weight="bold">梁3</text>
<text x="778.4" y="946.2" fill="#222" text-anchor="start" font-size="11">天井 h=250</text>
<text x="1267.2" y="923.2" fill="#222" text-anchor="start" font-size="11">掘込面 h=270</text>
<text x="1267.2" y="956" fill="#222" text-anchor="start" font-size="11">梁下面 h=254.5</text>
<text x="807.1" y="985.8" fill="#222" text-anchor="start" font-size="11">(SCケース h=236.5〜250)</text>
<text x="1008" y="1109.6" fill="#222" text-anchor="middle" font-size="11">(SC映像面 h=36.5〜161)</text>
<text x="1008" y="1171.2" fill="#222" text-anchor="middle" font-size="11">(中心 x=146 h=98.75)</text>
<text x="979.4" y="1195.2" fill="#6A5FD0" text-anchor="end" font-size="11">LLP</text>
<text x="1110.2" y="1195.2" fill="#6A5FD0" text-anchor="start" font-size="11">RLP</text>
<text x="1044.8" y="1213.2" fill="#6A5FD0" text-anchor="middle" font-size="11">目 h=100</text>
<text x="1017" y="1008" fill="#D85A30" text-anchor="start" font-size="11">(PJレンズ h=217)</text>
<text x="1302.4" y="1063.2" fill="#666" text-anchor="end" font-size="11">右側 開放</text>
<circle cx="774.4" cy="1351.2" r="3.5" fill="none" stroke="#000"/>
<line x1="774.4" y1="1351.2" x2="814.4" y2="1351.2" stroke="#000" stroke-width="1" marker-end="url(#ar)"/>
<line x1="774.4" y1="1351.2" x2="774.4" y2="1311.2" stroke="#000" stroke-width="1" marker-end="url(#ar)"/>
<text x="818.4" y="1355.2" fill="#000" text-anchor="start" font-size="11">+x</text>
<text x="778.4" y="1307.2" fill="#000" text-anchor="start" font-size="11">+h</text>
<text x="768.4" y="1367.2" fill="#000" text-anchor="end" font-size="11">O</text>
<text x="70" y="877.2" fill="#222" text-anchor="start" font-size="13" font-weight="bold">側面図（+x方向を見る。左壁側から）</text>
<polyline points="70,1351.2 665.2,1351.2" fill="none" stroke="#333333" stroke-width="2.2"/>
<polyline points="89.2,1351.2 89.2,951.2 162,951.2 162,919.2 573.2,919.2 573.2,951.2 646,951.2 646,1351.2" fill="none" stroke="#333333" stroke-width="2.2"/>
<rect x="162" y="919.2" width="411.2" height="24.8" fill="#8a857a" fill-opacity="0.4" stroke="#8a857a" stroke-width="0.8"/>
<rect x="288.1" y="919.2" width="18.2" height="2.4" fill="#BA7517" fill-opacity="1" stroke="#BA7517" stroke-width="1.0"/>
<rect x="360.1" y="919.2" width="18.2" height="2.4" fill="#BA7517" fill-opacity="1" stroke="#BA7517" stroke-width="1.0"/>
<rect x="432.1" y="919.2" width="18.2" height="2.4" fill="#BA7517" fill-opacity="1" stroke="#BA7517" stroke-width="1.0"/>
<rect x="122" y="951.2" width="21.4" height="21.6" fill="#dddddd" fill-opacity="0.6" stroke="#111111" stroke-width="1.0" stroke-dasharray="6 3"/>
<polyline points="129.2,972.8 129.2,1093.6" fill="none" stroke="#111111" stroke-width="0.8" stroke-dasharray="6 3"/>
<polyline points="129.2,1292.8 129.2,1093.6" fill="none" stroke="#111111" stroke-width="3" stroke-dasharray="6 3"/>
<circle cx="521.2" cy="1191.2" r="4" fill="#6A5FD0" fill-opacity="1" stroke="#6A5FD0" stroke-width="1.0"/>
<circle cx="577.2" cy="1004" r="4.5" fill="white" fill-opacity="1" stroke="#D85A30" stroke-width="2"/>
<text x="367.6" y="958" fill="#222" text-anchor="middle" font-size="11">梁（梁1〜3が重なる） h=254.5〜270</text>
<text x="162" y="914.2" fill="#222" text-anchor="middle" font-size="11">d=45.5</text>
<text x="573.2" y="914.2" fill="#222" text-anchor="middle" font-size="11">d=302.5</text>
<text x="135.2" y="1143.2" fill="#222" text-anchor="start" font-size="11">(SC映像面 d=25)</text>
<text x="135.2" y="1167.2" fill="#222" text-anchor="start" font-size="11">(ケース d=20.5〜33.9)</text>
<text x="513.2" y="1183.2" fill="#6A5FD0" text-anchor="end" font-size="11">LLP・RLP 目 d=270 h=100</text>
<text x="569.2" y="996" fill="#D85A30" text-anchor="end" font-size="11">(PJレンズ d=305 h=217)</text>
<text x="642" y="946.2" fill="#222" text-anchor="end" font-size="11">d=348</text>
<circle cx="89.2" cy="1351.2" r="3.5" fill="none" stroke="#000"/>
<line x1="89.2" y1="1351.2" x2="129.2" y2="1351.2" stroke="#000" stroke-width="1" marker-end="url(#ar)"/>
<line x1="89.2" y1="1351.2" x2="89.2" y2="1311.2" stroke="#000" stroke-width="1" marker-end="url(#ar)"/>
<text x="133.2" y="1355.2" fill="#000" text-anchor="start" font-size="11">+d</text>
<text x="93.2" y="1307.2" fill="#000" text-anchor="start" font-size="11">+h</text>
<text x="83.2" y="1367.2" fill="#000" text-anchor="end" font-size="11">O</text>
<rect x="951.8" y="326.8" width="91.4" height="42.3" fill="#2C6FB0" fill-opacity="0.15" stroke="#2C6FB0" stroke-width="1.4" stroke-dasharray="6 3"/>
<rect x="951.8" y="922.4" width="91.4" height="38.8" fill="#2C6FB0" fill-opacity="0.15" stroke="#2C6FB0" stroke-width="1.4" stroke-dasharray="6 3"/>
<polygon points="166.8,947.2 198.1,961.2 209.1,936.3 177.9,922.4" fill="#2C6FB0" fill-opacity="0.12" stroke="#2C6FB0" stroke-width="1.4" stroke-dasharray="6 3"/>
<rect x="951.8" y="326.8" width="91.4" height="42.3" fill="#C0392B" fill-opacity="0.15" stroke="#C0392B" stroke-width="1.4" stroke-dasharray="6 3"/>
<rect x="951.8" y="1037.9" width="91.4" height="38.8" fill="#C0392B" fill-opacity="0.15" stroke="#C0392B" stroke-width="1.4" stroke-dasharray="6 3"/>
<polygon points="166.8,1062.7 198.1,1076.6 209.1,1051.8 177.9,1037.9" fill="#C0392B" fill-opacity="0.12" stroke="#C0392B" stroke-width="1.4" stroke-dasharray="6 3"/>
<polygon points="122,972.8 143.4,972.8 143.4,951.2 122,951.2" fill="#7B4FA0" fill-opacity="0.2" stroke="#7B4FA0" stroke-width="1.4"/>
<text x="132.4" y="962.4" fill="#7B4FA0" text-anchor="middle" font-size="11">SCケース</text>
<polyline points="129.2,1093.6 577.2,1004" fill="none" stroke="#D85A30" stroke-width="1.2" stroke-dasharray="6 3"/>
<text x="409.2" y="1042.4" fill="#D85A30" text-anchor="start" font-size="11">投射光上端面</text>
<polyline points="129.2,1093.6 521.2,1191.2" fill="none" stroke="#6A5FD0" stroke-width="1.2" stroke-dasharray="6 3"/>
<text x="329.2" y="1143.2" fill="#6A5FD0" text-anchor="start" font-size="11">視線上端</text>
<polyline points="153.2,944 617.2,944" fill="none" stroke="#8a857a" stroke-width="1.0" stroke-dasharray="6 3"/>
<text x="615.2" y="956" fill="#8a857a" text-anchor="end" font-size="11">梁下面h=254.5（リンクのxは梁の外）</text>
<polyline points="188,922.4 266.2,939.3" fill="none" stroke="#aaaaaa" stroke-width="1.0"/>
<polyline points="344.4,922.4 188,956.2" fill="none" stroke="#aaaaaa" stroke-width="1.0"/>
<polygon points="166.8,961.7 198.1,975.6 209.1,950.8 177.9,936.8" fill="none" fill-opacity="0" stroke="#aaaaaa" stroke-width="0.6"/>
<polyline points="188,922.4 264.2,946.5" fill="none" stroke="#aaaaaa" stroke-width="1.0"/>
<polyline points="340.5,922.4 188,970.7" fill="none" stroke="#aaaaaa" stroke-width="1.0"/>
<polygon points="166.8,976.1 198.1,990 209.1,965.2 177.9,951.3" fill="none" fill-opacity="0" stroke="#aaaaaa" stroke-width="0.6"/>
<polyline points="188,922.4 261.6,953.7" fill="none" stroke="#aaaaaa" stroke-width="1.0"/>
<polyline points="335.2,922.4 188,985.1" fill="none" stroke="#aaaaaa" stroke-width="1.0"/>
<polygon points="166.8,990.5 198.1,1004.5 209.1,979.6 177.9,965.7" fill="none" fill-opacity="0" stroke="#aaaaaa" stroke-width="0.6"/>
<polyline points="188,922.4 258.1,961" fill="none" stroke="#aaaaaa" stroke-width="1.0"/>
<polyline points="328.2,922.4 188,999.5" fill="none" stroke="#aaaaaa" stroke-width="1.0"/>
<polygon points="166.8,1005 198.1,1018.9 209.1,994 177.9,980.1" fill="none" fill-opacity="0" stroke="#aaaaaa" stroke-width="0.6"/>
<polyline points="188,922.4 253.6,968.2" fill="none" stroke="#aaaaaa" stroke-width="1.0"/>
<polyline points="319.2,922.4 188,1014" fill="none" stroke="#aaaaaa" stroke-width="1.0"/>
<polygon points="166.8,1019.4 198.1,1033.3 209.1,1008.5 177.9,994.6" fill="none" fill-opacity="0" stroke="#aaaaaa" stroke-width="0.6"/>
<polyline points="188,922.4 247.9,975.4" fill="none" stroke="#aaaaaa" stroke-width="1.0"/>
<polyline points="307.8,922.4 188,1028.4" fill="none" stroke="#aaaaaa" stroke-width="1.0"/>
<polygon points="166.8,1033.8 198.1,1047.8 209.1,1022.9 177.9,1009" fill="none" fill-opacity="0" stroke="#aaaaaa" stroke-width="0.6"/>
<polyline points="188,922.4 240.7,982.6" fill="none" stroke="#aaaaaa" stroke-width="1.0"/>
<polyline points="293.3,922.4 188,1042.8" fill="none" stroke="#aaaaaa" stroke-width="1.0"/>
<polygon points="166.8,1048.3 198.1,1062.2 209.1,1037.3 177.9,1023.4" fill="none" fill-opacity="0" stroke="#aaaaaa" stroke-width="0.6"/>
<polyline points="267.4,932.1 267.2,933.5 267,935 266.7,936.4 266.5,937.9 266.2,939.3 265.8,940.8 265.5,942.2 265.1,943.6 264.7,945.1 264.2,946.5 263.8,948 263.3,949.4 262.7,950.8 262.2,952.3 261.6,953.7 260.9,955.2 260.3,956.6 259.6,958.1 258.8,959.5 258.1,961 257.2,962.4 256.4,963.8 255.5,965.3 254.6,966.7 253.6,968.2 252.5,969.6 251.5,971.1 250.3,972.5 249.2,974 247.9,975.4 246.6,976.8 245.2,978.3 243.8,979.7 242.3,981.2 240.7,982.6 239,984 237.2,985.5 235.2,986.9 233.2,988.4 231,989.8" fill="none" stroke="#2E9E6B" stroke-width="1.0" stroke-dasharray="6 3"/>
<polyline points="188,922.4 267.4,932.1" fill="none" stroke="#2C6FB0" stroke-width="2.6"/>
<polyline points="346.8,922.4 188,941.8" fill="none" stroke="#2C6FB0" stroke-width="1.8" stroke-dasharray="6 3"/>
<circle cx="267.4" cy="932.1" r="3" fill="#2C6FB0" fill-opacity="1" stroke="#2C6FB0" stroke-width="1.0"/>
<text x="272.4" y="945.1" fill="#2C6FB0" text-anchor="start" font-size="11">A(収)</text>
<circle cx="346.8" cy="922.4" r="3" fill="#2C6FB0" fill-opacity="1" stroke="#2C6FB0" stroke-width="1.0"/>
<text x="351.8" y="935.4" fill="#2C6FB0" text-anchor="start" font-size="11">B(収)</text>
<circle cx="188" cy="941.8" r="3" fill="#2C6FB0" fill-opacity="1" stroke="#2C6FB0" stroke-width="1.0"/>
<text x="193" y="954.8" fill="#2C6FB0" text-anchor="start" font-size="11">C(収)</text>
<polyline points="188,922.4 231,989.8" fill="none" stroke="#C0392B" stroke-width="2.6"/>
<polyline points="274.1,922.4 188,1057.2" fill="none" stroke="#C0392B" stroke-width="1.8" stroke-dasharray="6 3"/>
<circle cx="231" cy="989.8" r="3" fill="#C0392B" fill-opacity="1" stroke="#C0392B" stroke-width="1.0"/>
<text x="236" y="1002.8" fill="#C0392B" text-anchor="start" font-size="11">A(使)</text>
<circle cx="274.1" cy="922.4" r="3" fill="#C0392B" fill-opacity="1" stroke="#C0392B" stroke-width="1.0"/>
<text x="279.1" y="935.4" fill="#C0392B" text-anchor="start" font-size="11">B(使)</text>
<circle cx="188" cy="1057.2" r="3" fill="#C0392B" fill-opacity="1" stroke="#C0392B" stroke-width="1.0"/>
<text x="193" y="1070.2" fill="#C0392B" text-anchor="start" font-size="11">C(使)</text>
<polyline points="264.5,922.4 356.4,922.4" fill="none" stroke="#111" stroke-width="3.2"/>
<text x="360.4" y="926.4" fill="#111" text-anchor="start" font-size="11">Bレール(固定)</text>
<circle cx="188" cy="922.4" r="5" fill="white" fill-opacity="1" stroke="#111" stroke-width="2"/>
<text x="196" y="910.4" fill="#111" text-anchor="start" font-size="11">O 固定(d=61.7,h=268)</text>
<polyline points="951.8,1087.2 951.8,919.2" fill="none" stroke="#2C6FB0" stroke-width="1.4" stroke-dasharray="6 3"/>
<text x="947.8" y="1023.2" fill="#2C6FB0" text-anchor="end" font-size="11">左リンク x=110.9</text>
<polyline points="1043.2,1087.2 1043.2,919.2" fill="none" stroke="#C0392B" stroke-width="1.4" stroke-dasharray="6 3"/>
<text x="1047.2" y="1023.2" fill="#C0392B" text-anchor="start" font-size="11">右リンク x=168.0</text>
<text x="1046.8" y="932" fill="#C0392B" text-anchor="start" font-size="11">梁2内面まで2</text>
<text x="70" y="240" font-size="13" font-weight="bold" fill="#000">凡例</text>
<line x1="70" y1="258" x2="100" y2="258" stroke="#333333" stroke-width="2.2"/>
<text x="110" y="262" font-size="12" fill="#000">黒 太線：壁・床・天井（部屋.xlsx）</text>
<line x1="70" y1="280" x2="100" y2="280" stroke="#8a857a" stroke-width="6"/>
<text x="110" y="284" font-size="12" fill="#000">灰：梁（梁1・梁2・梁3）</text>
<line x1="70" y1="302" x2="100" y2="302" stroke="#BA7517" stroke-width="6"/>
<text x="110" y="306" font-size="12" fill="#000">黄：照明</text>
<line x1="70" y1="324" x2="100" y2="324" stroke="#2E9E6B" stroke-width="8"/>
<text x="110" y="328" font-size="12" fill="#000">緑：設置エリア（梁1–梁2間）</text>
<line x1="70" y1="346" x2="100" y2="346" stroke="#5B8DB8" stroke-width="2"/>
<text x="110" y="350" font-size="12" fill="#000">青：カーテン（平面図のみ表示）</text>
<line x1="70" y1="368" x2="100" y2="368" stroke="#111111" stroke-width="2" stroke-dasharray="6 3"/>
<text x="110" y="372" font-size="12" fill="#000">破線・( )付き：仮設定、または仮設定を含む計算値</text>
<line x1="70" y1="390" x2="100" y2="390" stroke="#111111" stroke-width="3" stroke-dasharray="6 3"/>
<text x="110" y="394" font-size="12" fill="#000">　SC：A00-003＋製品寸法図、ケースは天井付け</text>
<circle cx="85" cy="412" r="4" fill="#6A5FD0"/>
<text x="110" y="416" font-size="12" fill="#000">紫●：視聴位置 LLP（左）・RLP（右）、目の高さ</text>
<circle cx="85" cy="434" r="4.5" fill="white" stroke="#D85A30" stroke-width="2"/>
<text x="110" y="438" font-size="12" fill="#000">朱○：PJレンズ中心（A00-004）</text>
<line x1="70" y1="456" x2="100" y2="456" stroke="#2C6FB0" stroke-width="2" stroke-dasharray="6 3"/>
<text x="110" y="460" font-size="12" fill="#000">破線：CSP 収納（チルト24°）</text>
<line x1="70" y1="478" x2="100" y2="478" stroke="#C0392B" stroke-width="2" stroke-dasharray="6 3"/>
<text x="110" y="482" font-size="12" fill="#000">破線：CSP 使用（チルト24°）</text>
<line x1="70" y1="500" x2="100" y2="500" stroke="#2C6FB0" stroke-width="2"/>
<text x="110" y="504" font-size="12" fill="#000">青／赤：OAリンク（収納／使用）　破線：ロッドBC</text>
<line x1="70" y1="522" x2="100" y2="522" stroke="#aaaaaa" stroke-width="2"/>
<text x="110" y="526" font-size="12" fill="#000">灰：途中姿勢（リンク・CSP）／緑破線：Aの軌跡</text>
<line x1="70" y1="544" x2="100" y2="544" stroke="#111" stroke-width="2"/>
<text x="110" y="548" font-size="12" fill="#000">黒太：Bレール（固定）</text>
<line x1="70" y1="566" x2="100" y2="566" stroke="#7B4FA0" stroke-width="8"/>
<text x="110" y="570" font-size="12" fill="#000">紫：SCケース／橙破線：投射光上端面／青紫破線：視線上端</text>
<text x="70" y="614" font-size="12" fill="#000">出典：部屋.xlsx（Sheet1）、確定事項ファイル（D00-001〜004、A00-003、A00-004）、</text>
<text x="70" y="632" font-size="12" fill="#000">　　　SC製品寸法図 EP-100HM-MRW1-WF204（オーエスエム）、</text>
<text x="70" y="650" font-size="12" fill="#000">　　　依頼主回答（セッション01：SC天井付け、x&gt;273は壁なし、LP h=100は目の高さ）、</text>
<text x="70" y="668" font-size="12" fill="#000">　　　A03-004〜006、A01-001、A01-003、A02-002、</text>
<text x="70" y="686" font-size="12" fill="#000">　　　A00-004、D01-001、D05-001</text>
</svg>
