<svg xmlns="http://www.w3.org/2000/svg" viewBox="0 0 1300 1144" width="1300" height="1144" font-family="Noto Sans CJK JP, sans-serif" xmlns:c2pa="http://c2pa.org/manifest"><metadata><c2pa:manifest>AAAWgmp1bWIAAAAeanVtZGMycGEAEQAQgAAAqgA4m3EDYzJwYQAAABZcanVtYgAAAEdqdW1kYzJtYQARABCAAACqADibcQN1cm46YzJwYTo3OTlhZDA5Zi1mMmZjLTQwODUtOGYxOS1hNTZlMmJkMzkzNDIAAAADl2p1bWIAAAApanVtZGMyYXMAEQAQgAAAqgA4m3EDYzJwYS5hc3NlcnRpb25zAAAAALxqdW1iAAAARGp1bWRjYm9yABEAEIAAAKoAOJtxE2MycGEuaW5ncmVkaWVudC52MwAAAAAYYzJzaNuHp4pLbpRUcVeGYpezYmgAAABwY2JvcqNpZGM6Zm9ybWF0bWltYWdlL3N2Zyt4bWxqaW5zdGFuY2VJRHgseG1wOmlpZDozOWI3YTQ2OC05ZWI1LTQzZTktYTAzMC0wMGM5YmI2NzQyZGZscmVsYXRpb25zaGlwaHBhcmVudE9mAAAB4mp1bWIAAABBanVtZGNib3IAEQAQgAAAqgA4m3ETYzJwYS5hY3Rpb25zLnYyAAAAABhjMnNoCPuO7mx1fQ60jyr0xn4zggAAAZljYm9yomdhY3Rpb25zgqJmYWN0aW9ua2MycGEub3BlbmVkanBhcmFtZXRlcnOha2luZ3JlZGllbnRzgaJjdXJseC1zZWxmI2p1bWJmPWMycGEuYXNzZXJ0aW9ucy9jMnBhLmluZ3JlZGllbnQudjNkaGFzaFggHqXNO77Jh6AGaeURIMEiHEsybwP0np3eVwUwMOEWrpCkZmFjdGlvbngdY29tLmFudGhyb3BpYy5jbGF1ZGUucHJvdmlkZWRqcGFyYW1ldGVyc6F4H2NvbS5hbnRocm9waWMub3JpZ2luLWNvbmZpZGVuY2VndW5rbm93bmtkZXNjcmlwdGlvbnhmQ2xhdWRlIHByb3ZpZGVkIHRoaXMgZmlsZSBhdCB0aGUgcmVxdWVzdCBvZiBhIHVzZXIgYW5kIG1heSBoYXZlIGNyZWF0ZWQgb3IgbW9kaWZpZWQgdGhlIGZpbGUgY29udGVudHMubXNvZnR3YXJlQWdlbnShZG5hbWVmQ2xhdWRlcmFsbEFjdGlvbnNJbmNsdWRlZPUAAADIanVtYgAAAEBqdW1kY2JvcgARABCAAACqADibcRNjMnBhLmhhc2guZGF0YQAAAAAYYzJzaDNdyQTErlBE7LNQay/YpiAAAACAY2JvcqVjYWxnZnNoYTI1NmNwYWRNAAAAAAAAAAAAAAAAAGRoYXNoWCAc5lBkffiiy8FlW+RVBkfO/vDk81sO69bAGCbk/2Gib2RuYW1lbmp1bWJmIG1hbmlmZXN0amV4Y2x1c2lvbnOBomVzdGFydBjFZmxlbmd0aBkeBAAAAj5qdW1iAAAAJ2p1bWRjMmNsABEAEIAAAKoAOJtxA2MycGEuY2xhaW0udjIAAAACD2Nib3KlY2FsZ2ZzaGEyNTZpc2lnbmF0dXJleE1zZWxmI2p1bWJmPS9jMnBhL3VybjpjMnBhOjc5OWFkMDlmLWYyZmMtNDA4NS04ZjE5LWE1NmUyYmQzOTM0Mi9jMnBhLnNpZ25hdHVyZWppbnN0YW5jZUlEeCx4bXA6aWlkOjc0NWM2MDY4LWU4ZGQtNGQ2Zi1hOTI4LTQyM2JjYTI2NDk1ZHJjcmVhdGVkX2Fzc2VydGlvbnODomN1cmx4LXNlbGYjanVtYmY9YzJwYS5hc3NlcnRpb25zL2MycGEuaW5ncmVkaWVudC52M2RoYXNoWCAepc07vsmHoAZp5REgwSIcSzJvA/Send5XBTAw4RaukKJjdXJseCpzZWxmI2p1bWJmPWMycGEuYXNzZXJ0aW9ucy9jMnBhLmFjdGlvbnMudjJkaGFzaFggM116qHaj2Fck9+x2U1iJfAK9s8X87TLlbIFz+0777H+iY3VybHgpc2VsZiNqdW1iZj1jMnBhLmFzc2VydGlvbnMvYzJwYS5oYXNoLmRhdGFkaGFzaFgga0hPc9ejNyxRpV+ML0LQIIqQ0gh4S21CqvxmR46zI3l0Y2xhaW1fZ2VuZXJhdG9yX2luZm+jZG5hbWVvQW50aHJvcGljIEZpbGVzZ3ZlcnNpb25lMS4wLjBrc3BlY1ZlcnNpb25lMi40LjAAABA4anVtYgAAAChqdW1kYzJjcwARABCAAACqADibcQNjMnBhLnNpZ25hdHVyZQAAABAIY2JvctKEWQISogEmGCFZAgowggIGMIIBjaADAgECAhRA5aAK7sI50L64g/oGQgU9Z1UTADAKBggqhkjOPQQDAzBJMRcwFQYDVQQKEw5BbnRocm9waWMsIFBCQzEuMCwGA1UEAxMlQW50aHJvcGljIENvbnRlbnQgQ3JlZGVudGlhbHMgUm9vdCBDQTAeFw0yNjA4MDcxODQzNTZaFw0yODA4MDYxOTQzNTZaMEQxFzAVBgNVBAoTDkFudGhyb3BpYywgUEJDMSkwJwYDVQQDEyBBbnRocm9waWMgQ2xhdWRlIENvbnRlbnQgU2lnbmluZzBZMBMGByqGSM49AgEGCCqGSM49AwEHA0IABJh6CmvLUBgFFNU0vUKlOVtE6djd17L5SuwX0LemFisBM3dkd/3cyjxFA3Qo5S46fX0/ihY0VZ7mfb9KF703t5OjWDBWMA4GA1UdDwEB/wQEAwIHgDAVBgNVHSUEDjAMBgorBgEEAYPoXgIBMAwGA1UdEwEB/wQCMAAwHwYDVR0jBBgwFoAUzlHiBIFOZFsj+OPEz5o+nMHXXMIwCgYIKoZIzj0EAwMDZwAwZAIwMXMdFJ4BetLLVY7ORuE9noqbbAZOZn/aArXyTwFAZfKrPzxF2vPoJNf1+UCdg1XGAjBwX1zd9WGqYkqmL5SFqw1QySjr1zJfpJM9+1rdDwSPLMOPOjKuiXjoU/pUUeG9RwmhY3BhZFkNngAAAAAAAAAAAAAAAAAAAAAAAAAAAAAAAAAAAAAAAAAAAAAAAAAAAAAAAAAAAAAAAAAAAAAAAAAAAAAAAAAAAAAAAAAAAAAAAAAAAAAAAAAAAAAAAAAAAAAAAAAAAAAAAAAAAAAAAAAAAAAAAAAAAAAAAAAAAAAAAAAAAAAAAAAAAAAAAAAAAAAAAAAAAAAAAAAAAAAAAAAAAAAAAAAAAAAAAAAAAAAAAAAAAAAAAAAAAAAAAAAAAAAAAAAAAAAAAAAAAAAAAAAAAAAAAAAAAAAAAAAAAAAAAAAAAAAAAAAAAAAAAAAAAAAAAAAAAAAAAAAAAAAAAAAAAAAAAAAAAAAAAAAAAAAAAAAAAAAAAAAAAAAAAAAAAAAAAAAAAAAAAAAAAAAAAAAAAAAAAAAAAAAAAAAAAAAAAAAAAAAAAAAAAAAAAAAAAAAAAAAAAAAAAAAAAAAAAAAAAAAAAAAAAAAAAAAAAAAAAAAAAAAAAAAAAAAAAAAAAAAAAAAAAAAAAAAAAAAAAAAAAAAAAAAAAAAAAAAAAAAAAAAAAAAAAAAAAAAAAAAAAAAAAAAAAAAAAAAAAAAAAAAAAAAAAAAAAAAAAAAAAAAAAAAAAAAAAAAAAAAAAAAAAAAAAAAAAAAAAAAAAAAAAAAAAAAAAAAAAAAAAAAAAAAAAAAAAAAAAAAAAAAAAAAAAAAAAAAAAAAAAAAAAAAAAAAAAAAAAAAAAAAAAAAAAAAAAAAAAAAAAAAAAAAAAAAAAAAAAAAAAAAAAAAAAAAAAAAAAAAAAAAAAAAAAAAAAAAAAAAAAAAAAAAAAAAAAAAAAAAAAAAAAAAAAAAAAAAAAAAAAAAAAAAAAAAAAAAAAAAAAAAAAAAAAAAAAAAAAAAAAAAAAAAAAAAAAAAAAAAAAAAAAAAAAAAAAAAAAAAAAAAAAAAAAAAAAAAAAAAAAAAAAAAAAAAAAAAAAAAAAAAAAAAAAAAAAAAAAAAAAAAAAAAAAAAAAAAAAAAAAAAAAAAAAAAAAAAAAAAAAAAAAAAAAAAAAAAAAAAAAAAAAAAAAAAAAAAAAAAAAAAAAAAAAAAAAAAAAAAAAAAAAAAAAAAAAAAAAAAAAAAAAAAAAAAAAAAAAAAAAAAAAAAAAAAAAAAAAAAAAAAAAAAAAAAAAAAAAAAAAAAAAAAAAAAAAAAAAAAAAAAAAAAAAAAAAAAAAAAAAAAAAAAAAAAAAAAAAAAAAAAAAAAAAAAAAAAAAAAAAAAAAAAAAAAAAAAAAAAAAAAAAAAAAAAAAAAAAAAAAAAAAAAAAAAAAAAAAAAAAAAAAAAAAAAAAAAAAAAAAAAAAAAAAAAAAAAAAAAAAAAAAAAAAAAAAAAAAAAAAAAAAAAAAAAAAAAAAAAAAAAAAAAAAAAAAAAAAAAAAAAAAAAAAAAAAAAAAAAAAAAAAAAAAAAAAAAAAAAAAAAAAAAAAAAAAAAAAAAAAAAAAAAAAAAAAAAAAAAAAAAAAAAAAAAAAAAAAAAAAAAAAAAAAAAAAAAAAAAAAAAAAAAAAAAAAAAAAAAAAAAAAAAAAAAAAAAAAAAAAAAAAAAAAAAAAAAAAAAAAAAAAAAAAAAAAAAAAAAAAAAAAAAAAAAAAAAAAAAAAAAAAAAAAAAAAAAAAAAAAAAAAAAAAAAAAAAAAAAAAAAAAAAAAAAAAAAAAAAAAAAAAAAAAAAAAAAAAAAAAAAAAAAAAAAAAAAAAAAAAAAAAAAAAAAAAAAAAAAAAAAAAAAAAAAAAAAAAAAAAAAAAAAAAAAAAAAAAAAAAAAAAAAAAAAAAAAAAAAAAAAAAAAAAAAAAAAAAAAAAAAAAAAAAAAAAAAAAAAAAAAAAAAAAAAAAAAAAAAAAAAAAAAAAAAAAAAAAAAAAAAAAAAAAAAAAAAAAAAAAAAAAAAAAAAAAAAAAAAAAAAAAAAAAAAAAAAAAAAAAAAAAAAAAAAAAAAAAAAAAAAAAAAAAAAAAAAAAAAAAAAAAAAAAAAAAAAAAAAAAAAAAAAAAAAAAAAAAAAAAAAAAAAAAAAAAAAAAAAAAAAAAAAAAAAAAAAAAAAAAAAAAAAAAAAAAAAAAAAAAAAAAAAAAAAAAAAAAAAAAAAAAAAAAAAAAAAAAAAAAAAAAAAAAAAAAAAAAAAAAAAAAAAAAAAAAAAAAAAAAAAAAAAAAAAAAAAAAAAAAAAAAAAAAAAAAAAAAAAAAAAAAAAAAAAAAAAAAAAAAAAAAAAAAAAAAAAAAAAAAAAAAAAAAAAAAAAAAAAAAAAAAAAAAAAAAAAAAAAAAAAAAAAAAAAAAAAAAAAAAAAAAAAAAAAAAAAAAAAAAAAAAAAAAAAAAAAAAAAAAAAAAAAAAAAAAAAAAAAAAAAAAAAAAAAAAAAAAAAAAAAAAAAAAAAAAAAAAAAAAAAAAAAAAAAAAAAAAAAAAAAAAAAAAAAAAAAAAAAAAAAAAAAAAAAAAAAAAAAAAAAAAAAAAAAAAAAAAAAAAAAAAAAAAAAAAAAAAAAAAAAAAAAAAAAAAAAAAAAAAAAAAAAAAAAAAAAAAAAAAAAAAAAAAAAAAAAAAAAAAAAAAAAAAAAAAAAAAAAAAAAAAAAAAAAAAAAAAAAAAAAAAAAAAAAAAAAAAAAAAAAAAAAAAAAAAAAAAAAAAAAAAAAAAAAAAAAAAAAAAAAAAAAAAAAAAAAAAAAAAAAAAAAAAAAAAAAAAAAAAAAAAAAAAAAAAAAAAAAAAAAAAAAAAAAAAAAAAAAAAAAAAAAAAAAAAAAAAAAAAAAAAAAAAAAAAAAAAAAAAAAAAAAAAAAAAAAAAAAAAAAAAAAAAAAAAAAAAAAAAAAAAAAAAAAAAAAAAAAAAAAAAAAAAAAAAAAAAAAAAAAAAAAAAAAAAAAAAAAAAAAAAAAAAAAAAAAAAAAAAAAAAAAAAAAAAAAAAAAAAAAAAAAAAAAAAAAAAAAAAAAAAAAAAAAAAAAAAAAAAAAAAAAAAAAAAAAAAAAAAAAAAAAAAAAAAAAAAAAAAAAAAAAAAAAAAAAAAAAAAAAAAAAAAAAAAAAAAAAAAAAAAAAAAAAAAAAAAAAAAAAAAAAAAAAAAAAAAAAAAAAAAAAAAAAAAAAAAAAAAAAAAAAAAAAAAAAAAAAAAAAAAAAAAAAAAAAAAAAAAAAAAAAAAAAAAAAAAAAAAAAAAAAAAAAAAAAAAAAAAAAAAAAAAAAAAAAAAAAAAAAAAAAAAAAAAAAAAAAAAAAAAAAAAAAAAAAAAAAAAAAAAAAAAAAAAAAAAAAAAAAAAAAAAAAAAAAAAAAAAAAAAAAAAAAAAAAAAAAAAAAAAAAAAAAAAAAAAAAAAAAAAAAAAAAAAAAAAAAAAAAAAAAAAAAAAAAAAAAAAAAAAAAAAAAAAAAAAAAAAAAAAAAAAAAAAAAAAAAAAAAAAAAAAAAAAAAAAAAAAAAAAAAAAAAAAAAAAAAAAAAAAAAAAAAAAAAAAAAAAAAAAAAAAAAAAAAAAAAAAAAAAAAAAAAAAAAAAAAAAAAAAAAAAAAAAAAAAAAAAAAAAAAAAAAAAAAAAAAAAAAAAAAAAAAAAAAAAAAAAAAAAAAAAAAAAAAAAAAAAAAAAAAAAAAAAAAAAAAAAAAAAAAAAAAAAAAAAAAAAAAAAAAAAAAAAAAAAAAAAAAAAAAAAAAAAAAAAAAAAAAAAAAAAAAAAAAAAAAAAAAAAAAAAAAAAAAAAAAAAAAAAAAAAAAAAAAAAAAAAAAAAAAAAAAAAAAAAAAAAAAAAAAAAAAAAAAAAAAAAAAAAAAAAAAAAAAAAAAAAAAAAAAAAAAAAAAAAAAAAAAAAAAAAAAAAAAAAAAAAAAAAAAAAAAAAAAAAAAAAAAAAAAAAAAAAAAAAAAAAAAAAAAAAAAAAAAAAAAAAAAAAAAAAAAAAAAAAAAAAAAAAAAAAAAAAAAAAAAAAAAAAAAAAAAAAAAAAAAAAAAAAAAAAAAAAAAAAAAAAAAAAAAAAAAAAAAAAAAAAAAAAAAAAAAAAAAAAAAAAAAAAAAAAAAAAAAAAAAAAAAAAAAAAAAAAAAAAAAAAAAAAAAAAAAAAAAAAAAAAAAAAAAAAAAAAAAAAAAAAAAAAAAAAAAAAAAAAAAAAAAAAAAAAAAAAAAAAAAAAAAAAAAAAAAAAAAAAAAAAAAAAAAAAAAAAAAAAAAAAAAAAAAAAAAAAAAAAAAAAAAAAAAAAAAAAAAAAAAAAAAAAAAAAAAAAAAAAAAAAAAAAAAAAAAAAAAAAAAAAAAAAAAAAAAAAAAAAAAAAAAAAAAAAAAAAAAAAAAAAAAAAAAAAAAAAAAAAAAAAAAAAAAAAAAAAAAAAAAAAAAAAAAAAAAAAAAAAAAAAAAAAAAAAAAAAAAAAAAAAAAAAAAAAAAAAAAAAAAAAAAAAAAAAAAAAAAAAAAAAAAAAAAAAAAAAAAAAAAAAAAAAAAAAAAAAAAAAAAAAAAAAAAAAAAAAAAAAAAAAAAAAAAAAAAAAAAAAAAAAAAAAAAAAAAAAAAAAAAAAAAAAAAAAAAAAAAAAAAAAAAAAAAAAAAAAAAAAAAAAAAAAAAAAAAAAAAAAAAAAAAAAAAAAAAAAAAAAAAAAAAAAAAAAAAAAAAAAAAAAAAAAAAAAAAAAAAAAAAAAAAAAAAAAAAAAAAAAAAAAAAAAPZYQFzzsYL2CftlXbO+isT3usq+ag37L13WUDV16n5+nocvzfpFln5drLjJNZlCeU58qwIEwQkBk9FsBB5Z5VA1ck8=</c2pa:manifest></metadata>
<rect width="1300" height="1144" fill="#fff"/>
<text x="20" y="30" font-size="18" font-weight="bold">K121　保持具（案3：K120）の分解のイメージ</text>
<text x="20" y="50" font-size="11" fill="#555">作成 2610042159　部屋もCSPも描かない見取り図（F7 d）。CSPの傾き24°を戻した向きで表示（x：左右、奥行：背面→前面、高さ：底→上）。寸法・断面・ボルトはすべて仮。単位cm</text>
<text x="20" y="68" font-size="11" fill="#555">色：灰＝寸法切りの板、青＝市販アングル、橙＝つなぎ・コの字（厚板）、赤＝後ろの折り返し、黒＝ゴム板</text>
<circle cx="330.0" cy="640.0" r="2" fill="#999"/>
<circle cx="758.2" cy="640.0" r="2" fill="#999"/>
<circle cx="404.9" cy="593.2" r="2" fill="#999"/>
<circle cx="833.1" cy="593.2" r="2" fill="#999"/>
<circle cx="330.0" cy="512.5" r="2" fill="#999"/>
<circle cx="758.2" cy="512.5" r="2" fill="#999"/>
<circle cx="404.9" cy="465.7" r="2" fill="#999"/>
<circle cx="833.1" cy="465.7" r="2" fill="#999"/>
<text x="581.2" y="552.9" font-size="12" fill="#999" text-anchor="middle">（ここにCSPが入る：灰色の点は外形の角。CSPの図はK120）</text>
<polygon points="331.6,708.8 759.8,708.8 810.7,677.0 382.5,677.0" fill="#B4B2A9" fill-opacity="0.55" stroke="#333" stroke-width="0.8"/>
<polygon points="331.6,711.0 759.8,711.0 759.8,708.8 331.6,708.8" fill="#B4B2A9" fill-opacity="0.41" stroke="#333" stroke-width="0.8"/>
<polygon points="759.8,711.0 810.7,679.2 810.7,677.0 759.8,708.8" fill="#B4B2A9" fill-opacity="0.30" stroke="#333" stroke-width="0.8"/>
<text x="596.2" y="603.5" font-size="13" font-weight="bold" fill="#000" text-anchor="middle">① 底板</text>
<polygon points="333.5,675.3 761.7,675.3 772.2,668.8 344.0,668.8" fill="#444441" fill-opacity="0.80" stroke="#333" stroke-width="0.8"/>
<polygon points="333.5,677.6 761.7,677.6 761.7,675.3 333.5,675.3" fill="#444441" fill-opacity="0.60" stroke="#333" stroke-width="0.8"/>
<polygon points="761.7,677.6 772.2,671.0 772.2,668.8 761.7,675.3" fill="#444441" fill-opacity="0.44" stroke="#333" stroke-width="0.8"/>
<polygon points="365.0,655.6 793.2,655.6 803.7,649.1 375.5,649.1" fill="#444441" fill-opacity="0.80" stroke="#333" stroke-width="0.8"/>
<polygon points="365.0,657.9 793.2,657.9 793.2,655.6 365.0,655.6" fill="#444441" fill-opacity="0.60" stroke="#333" stroke-width="0.8"/>
<polygon points="793.2,657.9 803.7,651.3 803.7,649.1 793.2,655.6" fill="#444441" fill-opacity="0.44" stroke="#333" stroke-width="0.8"/>
<line x1="570.0" y1="693.4" x2="570.0" y2="628.1" stroke="#888" stroke-width="1" stroke-dasharray="4 3"/>
<polygon points="235.5,508.0 237.8,508.0 313.7,460.6 311.4,460.6" fill="#B4B2A9" fill-opacity="0.55" stroke="#333" stroke-width="0.8"/>
<polygon points="235.5,644.5 237.8,644.5 237.8,508.0 235.5,508.0" fill="#B4B2A9" fill-opacity="0.41" stroke="#333" stroke-width="0.8"/>
<polygon points="237.8,644.5 313.7,597.1 313.7,460.6 237.8,508.0" fill="#B4B2A9" fill-opacity="0.30" stroke="#333" stroke-width="0.8"/>
<text x="326.6" y="502.0" font-size="13" font-weight="bold" fill="#000" text-anchor="middle">② 左側板</text>
<polygon points="848.2,508.0 855.8,508.0 931.7,460.6 924.2,460.6" fill="#B4B2A9" fill-opacity="0.55" stroke="#333" stroke-width="0.8"/>
<polygon points="848.2,644.5 855.8,644.5 855.8,508.0 848.2,508.0" fill="#B4B2A9" fill-opacity="0.41" stroke="#333" stroke-width="0.8"/>
<polygon points="855.8,644.5 931.7,597.1 931.7,460.6 855.8,508.0" fill="#B4B2A9" fill-opacity="0.30" stroke="#333" stroke-width="0.8"/>
<text x="762.0" y="502.0" font-size="13" font-weight="bold" fill="#000" text-anchor="middle">③ 右側板（＝C′の内板）</text>
<line x1="272.7" y1="558.1" x2="361.6" y2="558.1" stroke="#888" stroke-width="1" stroke-dasharray="4 3"/>
<line x1="887.0" y1="558.1" x2="797.0" y2="558.1" stroke="#888" stroke-width="1" stroke-dasharray="4 3"/>
<polygon points="284.3,711.0 295.6,711.0 346.5,679.2 335.2,679.2" fill="#85B7EB" fill-opacity="0.55" stroke="#333" stroke-width="0.8"/>
<polygon points="284.3,722.3 295.6,722.3 295.6,711.0 284.3,711.0" fill="#85B7EB" fill-opacity="0.41" stroke="#333" stroke-width="0.8"/>
<polygon points="295.6,722.3 346.5,690.5 346.5,679.2 295.6,711.0" fill="#85B7EB" fill-opacity="0.30" stroke="#333" stroke-width="0.8"/>
<polygon points="795.8,711.0 804.8,711.0 855.7,679.2 846.7,679.2" fill="#85B7EB" fill-opacity="0.55" stroke="#333" stroke-width="0.8"/>
<polygon points="795.8,722.3 804.8,722.3 804.8,711.0 795.8,711.0" fill="#85B7EB" fill-opacity="0.41" stroke="#333" stroke-width="0.8"/>
<polygon points="804.8,722.3 855.7,690.5 855.7,679.2 804.8,711.0" fill="#85B7EB" fill-opacity="0.30" stroke="#333" stroke-width="0.8"/>
<text x="337.5" y="706.5" font-size="13" font-weight="bold" text-anchor="middle">④ 底板受けアングル×2</text>
<polygon points="425.9,388.1 854.1,388.1 862.1,383.1 433.9,383.1" fill="#85B7EB" fill-opacity="0.55" stroke="#333" stroke-width="0.8"/>
<polygon points="425.9,407.6 854.1,407.6 854.1,388.1 425.9,388.1" fill="#85B7EB" fill-opacity="0.41" stroke="#333" stroke-width="0.8"/>
<polygon points="854.1,407.6 862.1,402.6 862.1,383.1 854.1,388.1" fill="#85B7EB" fill-opacity="0.30" stroke="#333" stroke-width="0.8"/>
<text x="618.6" y="455.2" font-size="13" font-weight="bold" fill="#000" text-anchor="middle">⑤ 爪（アングル、ボルトで外せる）</text>
<polygon points="415.4,429.2 843.6,429.2 844.7,428.5 416.4,428.5" fill="#444441" fill-opacity="0.80" stroke="#333" stroke-width="0.8"/>
<polygon points="415.4,444.2 843.6,444.2 843.6,429.2 415.4,429.2" fill="#444441" fill-opacity="0.60" stroke="#333" stroke-width="0.8"/>
<polygon points="843.6,444.2 844.7,443.5 844.7,428.5 843.6,429.2" fill="#444441" fill-opacity="0.44" stroke="#333" stroke-width="0.8"/>
<polygon points="415.2,393.4 430.2,393.4 446.6,383.1 431.6,383.1" fill="#85B7EB" fill-opacity="0.70" stroke="#333" stroke-width="0.8"/>
<polygon points="415.2,427.9 430.2,427.9 430.2,393.4 415.2,393.4" fill="#85B7EB" fill-opacity="0.52" stroke="#333" stroke-width="0.8"/>
<polygon points="430.2,427.9 446.6,417.6 446.6,383.1 430.2,393.4" fill="#85B7EB" fill-opacity="0.39" stroke="#333" stroke-width="0.8"/>
<polygon points="830.7,393.4 845.7,393.4 862.1,383.1 847.1,383.1" fill="#85B7EB" fill-opacity="0.70" stroke="#333" stroke-width="0.8"/>
<polygon points="830.7,427.9 845.7,427.9 845.7,393.4 830.7,393.4" fill="#85B7EB" fill-opacity="0.52" stroke="#333" stroke-width="0.8"/>
<polygon points="845.7,427.9 862.1,417.6 862.1,383.1 845.7,393.4" fill="#85B7EB" fill-opacity="0.39" stroke="#333" stroke-width="0.8"/>
<line x1="647.6" y1="383.1" x2="619.7" y2="465.1" stroke="#888" stroke-width="1" stroke-dasharray="4 3"/>
<text x="870.1" y="413.1" font-size="12" text-anchor="start">⑥ 爪の取付金具×2（側板にボルト）</text>
<polygon points="290.7,588.2 315.4,588.2 316.5,587.5 291.7,587.5" fill="#D85A30" fill-opacity="0.80" stroke="#333" stroke-width="0.8"/>
<polygon points="290.7,618.2 315.4,618.2 315.4,588.2 290.7,588.2" fill="#D85A30" fill-opacity="0.60" stroke="#333" stroke-width="0.8"/>
<polygon points="315.4,618.2 316.5,617.5 316.5,587.5 315.4,588.2" fill="#D85A30" fill-opacity="0.44" stroke="#333" stroke-width="0.8"/>
<polygon points="698.7,588.2 723.4,588.2 724.5,587.5 699.7,587.5" fill="#D85A30" fill-opacity="0.80" stroke="#333" stroke-width="0.8"/>
<polygon points="698.7,618.2 723.4,618.2 723.4,588.2 698.7,588.2" fill="#D85A30" fill-opacity="0.60" stroke="#333" stroke-width="0.8"/>
<polygon points="723.4,618.2 724.5,617.5 724.5,587.5 723.4,588.2" fill="#D85A30" fill-opacity="0.44" stroke="#333" stroke-width="0.8"/>
<text x="292.9" y="580.2" font-size="13" font-weight="bold" text-anchor="start">⑦ 後ろの折り返し×2（小アングル）</text>
<polygon points="112.2,582.3 158.7,582.3 179.7,569.2 133.2,569.2" fill="#E6A23C" fill-opacity="0.60" stroke="#333" stroke-width="0.8"/>
<polygon points="112.2,627.3 158.7,627.3 158.7,582.3 112.2,582.3" fill="#E6A23C" fill-opacity="0.45" stroke="#333" stroke-width="0.8"/>
<polygon points="158.7,627.3 179.7,614.2 179.7,569.2 158.7,582.3" fill="#E6A23C" fill-opacity="0.33" stroke="#333" stroke-width="0.8"/>
<polygon points="78.4,582.3 85.9,582.3 106.9,569.2 99.4,569.2" fill="#E6A23C" fill-opacity="0.85" stroke="#333" stroke-width="0.8"/>
<polygon points="78.4,627.3 85.9,627.3 85.9,582.3 78.4,582.3" fill="#E6A23C" fill-opacity="0.64" stroke="#333" stroke-width="0.8"/>
<polygon points="85.9,627.3 106.9,614.2 106.9,569.2 85.9,582.3" fill="#E6A23C" fill-opacity="0.47" stroke="#333" stroke-width="0.8"/>
<polygon points="104.7,582.3 112.2,582.3 133.2,569.2 125.7,569.2" fill="#E6A23C" fill-opacity="0.85" stroke="#333" stroke-width="0.8"/>
<polygon points="104.7,627.3 112.2,627.3 112.2,582.3 104.7,582.3" fill="#E6A23C" fill-opacity="0.64" stroke="#333" stroke-width="0.8"/>
<polygon points="112.2,627.3 133.2,614.2 133.2,569.2 112.2,582.3" fill="#E6A23C" fill-opacity="0.47" stroke="#333" stroke-width="0.8"/>
<text x="95.3" y="574.3" font-size="13" font-weight="bold" text-anchor="middle">⑧ 左つなぎ板＋左コの字</text>
<line x1="169.2" y1="598.3" x2="244.2" y2="598.3" stroke="#888" stroke-width="1" stroke-dasharray="4 3"/>
<polygon points="1005.2,491.5 1012.7,491.5 1033.7,478.4 1026.2,478.4" fill="#E6A23C" fill-opacity="0.85" stroke="#333" stroke-width="0.8"/>
<polygon points="1005.2,536.5 1012.7,536.5 1012.7,491.5 1005.2,491.5" fill="#E6A23C" fill-opacity="0.64" stroke="#333" stroke-width="0.8"/>
<polygon points="1012.7,536.5 1033.7,523.4 1033.7,478.4 1012.7,491.5" fill="#E6A23C" fill-opacity="0.47" stroke="#333" stroke-width="0.8"/>
<text x="1008.9" y="483.5" font-size="13" font-weight="bold" text-anchor="middle">⑨ 右コの字の外板</text>
<line x1="1019.4" y1="507.4" x2="921.9" y2="507.4" stroke="#888" stroke-width="1" stroke-dasharray="4 3"/>
<text x="30" y="860" font-size="14" font-weight="bold">部品の種類（すべて仮）　曲げ・溶接なし：平らな板（寸法切り）＋市販のアングル＋ボルトで組む</text>
<text x="30" y="884" font-size="12">①　底板：アルミ板 厚3　→　寸法切り（オーダー）＋自分で穴あけ</text>
<text x="30" y="904" font-size="12">②　左側板：アルミ板 厚3　→　寸法切り（外形が多角形のためレーザー等）＋穴あけ</text>
<text x="30" y="924" font-size="12">③　右側板＝C′の内板：アルミ板 厚10　→　寸法切り＋ブッシュ穴は業者（精度）</text>
<text x="30" y="944" font-size="12">④　底板受け×2：市販アルミアングル　→　長さ切り（自分で切れないため購入時に切断）＋穴・タップ</text>
<text x="30" y="964" font-size="12">⑤　爪：市販アルミアングル　→　同上。ボルトで外せる＝CSPの出し入れ口</text>
<text x="30" y="984" font-size="12">⑥　爪の取付金具×2：市販の小さなL金具 or アングル　→　穴あけ</text>
<text x="30" y="1004" font-size="12">⑦　後ろの折り返し×2：市販アングルの短片　→　長さ切り＋穴あけ</text>
<text x="30" y="1024" font-size="12">⑧　左つなぎ板＋左コの字：アルミ板 厚10・平板＋スペーサー　→　寸法切り＋ブッシュ穴は業者</text>
<text x="30" y="1044" font-size="12">⑨　右コの字の外板：アルミ板 厚10＋スペーサー　→　同上</text>
<text x="30" y="1064" font-size="12">－　ゴム板：市販ゴムシート　→　カッターで切って貼る</text>
<text x="30" y="1084" font-size="12">－　ボルト・ナット：市販　→　</text>
<text x="30" y="1116" font-size="12" fill="#555">組む順（イメージ）：②③と①を④でつなぐ → ⑦を側板に付ける → CSPを前上から入れる → ⑤⑥の爪を付けて閉じる → ⑧⑨でリンクのCにつなぐ</text>
</svg>